<svg width="18" height="16" viewBox="0 0 18 16" fill="none" xmlns="http://www.w3.org/2000/svg">
<path d="M16.5059 0H1.49404C1.09448 0.00362179 0.71269 0.168229 0.432552 0.45765C0.152414 0.747072 -0.00314826 1.13763 4.83063e-05 1.5435V10.0457C-0.00127262 10.3309 0.0750871 10.611 0.220684 10.8549C0.366281 11.0988 0.575444 11.297 0.825043 11.4277L7.995 15.755C8.30601 15.916 8.65015 16 8.99924 16C9.34834 16 9.69248 15.916 10.0035 15.755L17.1734 11.4277C17.4231 11.2973 17.6324 11.0994 17.7783 10.8558C17.9241 10.6122 18.0008 10.3323 17.9999 10.0472V1.54502C18.0017 1.34393 17.9645 1.14444 17.8904 0.957963C17.8163 0.771483 17.7067 0.601659 17.568 0.458189C17.4292 0.314719 17.264 0.200412 17.0818 0.121796C16.8996 0.0431792 16.7039 0.0017928 16.5059 0ZM13.5 8.3803H10.5V11.4277H7.5V8.3803H4.50002V5.33292H7.5V2.28554H10.5V5.33292H13.5V8.3803Z" fill="#FCFCFC"/>
</svg>
