<svg width="20" height="19" viewBox="0 0 20 19" fill="none" xmlns="http://www.w3.org/2000/svg">
<path d="M19.5861 9.34434L10.499 0.208078C10.4336 0.142118 10.3559 0.0897877 10.2703 0.054083C10.1847 0.0183783 10.093 0 10.0004 0C9.90779 0 9.81608 0.0183783 9.73053 0.054083C9.64497 0.0897877 9.56726 0.142118 9.50183 0.208078L0.414753 9.34434C0.150017 9.6107 0 9.97251 0 10.3499C0 11.1334 0.633161 11.7705 1.41193 11.7705H2.36939V18.2897C2.36939 18.6826 2.68487 19 3.07535 19H8.58849V14.0279H11.0594V19H16.9255C17.316 19 17.6314 18.6826 17.6314 18.2897V11.7705H18.5889C18.9639 11.7705 19.3235 11.6217 19.5883 11.3532C20.1376 10.7982 20.1376 9.89926 19.5861 9.34434Z" fill="#FCFCFC"/>
</svg>
