<svg width="313" height="222" viewBox="0 0 313 222" fill="none" xmlns="http://www.w3.org/2000/svg">
<g clip-path="url(#clip0_28_350)">
<path opacity="0.1" d="M104.059 221.875C119.302 221.875 131.659 219.888 131.659 217.437C131.659 214.985 119.302 212.998 104.059 212.998C88.8166 212.998 76.4598 214.985 76.4598 217.437C76.4598 219.888 88.8166 221.875 104.059 221.875Z" fill="#2A9988"/>
<path opacity="0.1" d="M254.087 222C273.108 222 288.527 220.013 288.527 217.561C288.527 215.11 273.108 213.123 254.087 213.123C235.067 213.123 219.647 215.11 219.647 217.561C219.647 220.013 235.067 222 254.087 222Z" fill="#2A9988"/>
<path opacity="0.1" d="M3.92009 95.92H32.6669V135.153H6.02462C5.95381 135.556 5.88583 135.961 5.81218 136.367H32.6669V168.007C32.6187 167.993 32.5763 167.976 32.5309 167.959C31.7718 167.659 31.0184 167.341 30.265 167.001L29.7834 166.782C29.0281 166.425 28.2728 166.047 27.5175 165.648C27.254 165.509 26.9906 165.364 26.73 165.217C22.5368 162.865 18.7274 159.884 15.4341 156.379C15.3378 156.285 15.2472 156.186 15.1509 156.095C14.692 155.596 14.2416 155.091 13.8054 154.575L13.3239 154.008C12.8084 153.376 12.3099 152.726 11.8255 152.068C11.7547 151.972 11.6867 151.875 11.6131 151.784C9.64324 149.05 8.00764 146.088 6.74124 142.964C6.70158 142.87 6.66759 142.768 6.63077 142.68C6.24178 141.678 5.89716 140.667 5.59691 139.646C5.46662 139.217 5.34199 138.795 5.23436 138.349C5.1947 138.219 5.16071 138.091 5.12956 137.964C3.52071 131.676 3.33093 125.144 3.33093 118.658C3.33093 117.9 3.33093 117.14 3.33093 116.389C3.33093 113.765 3.36209 111.125 3.40741 108.487C3.40741 107.804 3.43573 107.123 3.4499 106.437C3.48955 104.695 3.5462 102.954 3.61985 101.212C3.63684 100.727 3.6595 100.245 3.68499 99.763C3.68499 99.4851 3.69916 99.2071 3.72748 98.9292C3.79546 97.9195 3.85211 96.9183 3.92009 95.92Z" fill="#2A9988"/>
<path opacity="0.1" d="M32.667 52.2369H16.8986C19.4618 48.2197 22.2624 44.3594 25.2855 40.6766C27.628 37.7951 30.1007 34.9872 32.667 32.2815V52.2369Z" fill="#2A9988"/>
<path opacity="0.1" d="M32.6669 53.4509V94.7061H4.01074C4.01074 94.587 4.03057 94.465 4.03907 94.3459C4.06456 94.0197 4.09005 93.6936 4.11838 93.3703C4.14953 92.9902 4.18352 92.6073 4.22034 92.2358C4.25717 91.8642 4.29682 91.4105 4.33931 90.9992C4.3818 90.588 4.42145 90.171 4.4696 89.7598C4.51776 89.3485 4.56024 88.9373 4.61123 88.5289C4.66221 88.1205 4.70753 87.7064 4.76135 87.298C4.80384 86.9576 4.84915 86.6201 4.89447 86.2798C4.95962 85.8005 5.0276 85.3183 5.10125 84.8418C5.10125 84.7709 5.12107 84.6972 5.1324 84.6291C5.64938 81.1411 6.3538 77.6835 7.2426 74.2713C8.17295 70.692 9.36098 67.1849 10.7974 63.7774C12.324 60.2128 14.1114 56.766 16.1451 53.465L32.6669 53.4509Z" fill="#2A9988"/>
<path opacity="0.1" d="M39.53 95.9171V135.153H100.93V95.9171H39.53ZM39.53 136.364V170.058C39.8813 170.132 40.2297 170.203 40.5752 170.262C41.0454 170.353 41.5128 170.435 41.9915 170.506C42.0821 170.52 42.1756 170.534 42.2747 170.543C42.4616 170.574 42.6543 170.6 42.8412 170.625C43.3142 170.69 43.7844 170.744 44.2574 170.787C44.4812 170.81 44.7078 170.829 44.9344 170.846L45.4811 170.889C45.7785 170.912 46.073 170.929 46.3648 170.937C46.5461 170.937 46.7274 170.954 46.9143 170.96C47.0559 170.96 47.1975 170.96 47.3448 170.96C47.4921 170.96 47.7017 170.96 47.8802 170.96C48.1238 170.96 48.3674 170.96 48.6081 170.96H48.9339C49.1774 170.96 49.421 170.96 49.6618 170.937H49.6788C49.8459 170.937 50.0159 170.937 50.1858 170.914C50.233 170.917 50.2803 170.917 50.3274 170.914C50.4691 170.914 50.6107 170.914 50.7466 170.895H50.8458L51.7947 170.821C52.1062 170.793 52.4206 170.756 52.7379 170.722L53.3837 170.645C56.011 170.276 58.6092 169.723 61.1588 168.989C66.8861 167.389 72.4887 165.151 78.2132 163.512C85.6144 161.399 93.7918 160.361 100.944 162.945V136.364H39.53ZM100.93 52.2369V0.00280721C94.2074 -0.070118 87.5034 0.717153 80.9805 2.3455C65.433 6.25661 51.4831 14.7397 39.53 25.5739V52.2341H42.6118V53.4452H39.53V94.706H100.93V53.448H55.2644V52.2369H100.93ZM179.794 34.593C175.948 34.4569 172.124 33.2373 168.665 31.3541C162.052 27.7521 156.769 22.1903 150.866 17.4964C138.602 7.72008 123.391 1.82081 107.787 0.357331V52.2369H195.438L195.656 52.0072L179.794 34.593ZM187.779 33.1749L196.245 42.4776V30.7358C193.41 31.0875 190.926 31.9241 187.79 33.1636L187.779 33.1749ZM196.245 178.425V136.364H178.205C178.157 136.185 178.109 136.004 178.052 135.822C178.106 136.004 178.151 136.185 178.202 136.364H107.798V166.782C108.467 167.279 109.127 167.8 109.781 168.331C110.486 168.898 111.183 169.496 111.883 170.083L112.588 170.668C112.925 170.951 113.265 171.235 113.608 171.502C114.288 172.054 114.974 172.598 115.667 173.135C116.01 173.419 116.361 173.674 116.709 173.941C122.24 178.175 128.075 181.996 134.166 185.373C135.531 186.13 136.909 186.868 138.299 187.588C139.225 188.062 140.157 188.533 141.091 188.99C142.496 189.676 143.912 190.338 145.34 190.975C158.502 196.891 172.419 200.95 186.694 203.037C189.865 203.506 193.047 203.875 196.242 204.143V178.422H196.526L196.245 178.425ZM107.798 53.448V94.706H196.257V53.448H107.798ZM107.798 95.9171V135.153H196.257V95.9171H107.798ZM203.123 30.6847V43.7822L213.928 31.91C210.348 31.3314 206.746 30.9182 203.123 30.6705V30.6847ZM203.123 95.9313V135.153H289.159V95.9171L203.123 95.9313ZM288.845 181.539L289.148 136.364H203.123V204.594C208.664 204.827 214.215 204.761 219.749 204.396H219.846C222.489 204.229 225.121 203.987 227.74 203.67H227.799C241.772 202.041 255.435 198.391 268.36 192.833L288.845 181.539ZM305.749 102.378C305.426 101.615 305.089 100.858 304.746 100.109C304.106 98.6909 303.429 97.3125 302.732 95.9341H296.019V135.153H312.992C312.983 124.046 310.176 112.702 305.757 102.364L305.749 102.378ZM296.019 136.378V175.234C300.801 170.645 304.84 165.395 307.749 159.394C311.247 152.167 312.847 144.342 312.977 136.373L296.019 136.378ZM296.019 84.4986V94.7089H302.103C300.263 91.1941 298.235 87.781 296.028 84.4844L296.019 84.4986ZM237.67 38.3821C237.223 38.212 236.775 38.039 236.325 37.8716C231.575 36.1153 226.721 34.6547 221.791 33.4982L205.255 51.6697L204.938 52.0072L205.151 52.2398H264.004C255.807 46.5902 246.971 41.9338 237.679 38.368L237.67 38.3821ZM265.729 53.4622H204.329L203.123 54.5683V94.706H213.699H213.716H289.17V75.264C282.345 66.9981 274.467 59.6637 265.737 53.448L265.729 53.4622Z" fill="#2A9988"/>
<path opacity="0.1" d="M32.6669 74.26V94.7061H4.01074C4.01074 94.587 4.03057 94.465 4.03907 94.3459C4.06456 94.0198 4.09005 93.6936 4.11838 93.3703C4.14953 92.9902 4.18352 92.6073 4.22034 92.2358C4.25717 91.8643 4.29682 91.4105 4.33931 90.9992C4.3818 90.588 4.42145 90.171 4.4696 89.7598C4.51776 89.3485 4.56024 88.9373 4.61123 88.5289C4.66221 88.1205 4.70753 87.7064 4.76135 87.298C4.80384 86.9576 4.84915 86.6201 4.89447 86.2798C4.95962 85.8005 5.0276 85.3183 5.10125 84.8418C5.10125 84.7709 5.12107 84.6972 5.1324 84.6291C5.64938 81.1411 6.3538 77.6835 7.2426 74.2714L32.6669 74.26Z" fill="#2A9988"/>
<path opacity="0.1" d="M3.92009 95.92H32.6669V135.153H6.02462C5.95381 135.556 5.88583 135.961 5.81218 136.367H32.6669V168.007C32.6187 167.993 32.5763 167.976 32.5309 167.959C31.7718 167.659 31.0184 167.341 30.265 167.001L29.7834 166.782C29.0281 166.425 28.2728 166.047 27.5175 165.648C27.254 165.509 26.9906 165.364 26.73 165.217C22.5368 162.865 18.7274 159.884 15.4341 156.379C15.3378 156.285 15.2472 156.186 15.1509 156.095C14.692 155.596 14.2416 155.091 13.8054 154.575L13.3239 154.008C12.8084 153.376 12.3099 152.726 11.8255 152.068C11.7547 151.972 11.6867 151.875 11.6131 151.784C9.64324 149.05 8.00764 146.088 6.74124 142.964C6.70158 142.87 6.66759 142.768 6.63077 142.68C6.24178 141.678 5.89716 140.667 5.59691 139.646C5.46662 139.217 5.34199 138.795 5.23436 138.349C5.1947 138.219 5.16071 138.091 5.12956 137.964C3.52071 131.676 3.33093 125.144 3.33093 118.658C3.33093 117.9 3.33093 117.14 3.33093 116.389C3.33093 113.765 3.36209 111.125 3.40741 108.487C3.40741 107.804 3.43573 107.123 3.4499 106.437C3.48955 104.695 3.5462 102.954 3.61985 101.212C3.63684 100.727 3.6595 100.245 3.68499 99.763C3.68499 99.4851 3.69916 99.2071 3.72748 98.9292C3.79546 97.9195 3.85211 96.9183 3.92009 95.92Z" fill="#2A9988"/>
<path opacity="0.1" d="M61.1447 59.3558V94.7061H39.53V59.3558H42.6118V47.3871H55.2616V59.3558H61.1447Z" fill="#2A9988"/>
<path opacity="0.1" d="M61.1446 95.9171H39.5328V135.15H61.1446V95.9171Z" fill="#2A9988"/>
<path opacity="0.1" d="M39.53 136.367H61.1447V168.983C58.595 169.717 55.9968 170.269 53.3695 170.637L52.7237 170.716C52.4065 170.753 52.0921 170.784 51.7805 170.815C51.4689 170.846 51.146 170.869 50.8316 170.889H50.7325C50.5965 170.889 50.4492 170.906 50.3161 170.909H50.1716C50.0017 170.909 49.8317 170.926 49.6618 170.932C49.421 170.946 49.1803 170.949 48.9339 170.951C48.829 170.951 48.7299 170.951 48.6251 170.951C48.3815 170.951 48.1408 170.951 47.8972 170.951H47.3618C47.2174 170.951 47.0786 170.951 46.9285 170.951L46.3818 170.932C46.0985 170.932 45.7926 170.9 45.4981 170.88L44.9542 170.841L44.2773 170.778C43.8014 170.736 43.3284 170.682 42.861 170.617L42.2945 170.537L42.0113 170.498C41.5383 170.424 41.0709 170.344 40.595 170.254C40.2466 170.194 39.9011 170.12 39.5499 170.049L39.53 136.367Z" fill="#2A9988"/>
<path opacity="0.1" d="M196.257 55.1809H178.435V94.7032H196.257V55.1809Z" fill="#2A9988"/>
<path opacity="0.1" d="M196.259 95.9171V135.153H107.798V118.229H154.917V128.213H178.435V95.9171H196.259Z" fill="#2A9988"/>
<path opacity="0.1" d="M196.54 178.433H196.257V204.172C193.065 203.901 189.883 203.534 186.711 203.068C172.429 200.975 158.506 196.907 145.34 190.981C141.539 189.268 137.815 187.398 134.169 185.371C128.078 181.992 122.242 178.171 116.709 173.938C115.32 172.872 113.948 171.781 112.594 170.665C111.656 169.891 110.724 169.097 109.781 168.325C109.127 167.795 108.467 167.273 107.798 166.774V136.367H178.2C178.151 136.185 178.103 136.004 178.052 135.825C178.106 136.004 178.157 136.185 178.205 136.367H196.257V178.416C196.353 178.419 196.446 178.428 196.54 178.433Z" fill="#2A9988"/>
<path opacity="0.1" d="M242.738 52.2369H231.124V48.6236H236.33V37.8603C236.782 38.0248 237.231 38.194 237.679 38.368V48.6236H242.738V52.2369Z" fill="#2A9988"/>
<path opacity="0.1" d="M270.717 94.7061H213.705C213.705 94.7061 213.705 94.7061 213.725 94.7203L213.699 94.7061H203.123V55.1838H206.119V84.3966H219.814V67.0958H231.127V53.4509H242.74V67.1071H254.053V84.4079H270.717V94.7061Z" fill="#2A9988"/>
<path opacity="0.1" d="M203.123 95.9171V135.153H270.717V95.9171H203.123ZM289.066 181.337L289.159 150.281H270.717V136.384H203.123V204.594C208.664 204.827 214.215 204.761 219.749 204.396H219.846C222.489 204.229 225.121 203.987 227.74 203.67H227.799C241.772 202.041 255.435 198.391 268.36 192.833" fill="#2A9988"/>
<path opacity="0.1" d="M297.22 136.367H312.989C312.85 144.334 311.252 152.159 307.757 159.385C304.848 165.39 300.806 170.639 296.031 175.226V150.267H297.22V136.367Z" fill="#2A9988"/>
<path opacity="0.1" d="M312.997 135.153H297.22V102.364H305.757C310.176 112.702 312.983 124.046 312.997 135.153Z" fill="#2A9988"/>
<path opacity="0.1" d="M196.259 66.1683H186.711V78.5596H196.259V66.1683Z" fill="#2A9988"/>
<path opacity="0.1" d="M196.259 91.8529H186.711V94.7061H196.259V91.8529Z" fill="#2A9988"/>
<path opacity="0.1" d="M196.259 95.9171H186.711V104.241H196.259V95.9171Z" fill="#2A9988"/>
<path opacity="0.1" d="M196.259 117.537H186.711V129.929H196.259V117.537Z" fill="#2A9988"/>
<path opacity="0.1" d="M196.259 143.222H186.711V155.613H196.259V143.222Z" fill="#2A9988"/>
<path opacity="0.1" d="M196.257 178.416C196.353 178.416 196.446 178.416 196.54 178.433H196.257V181.312H186.711V168.906H196.257V178.416Z" fill="#2A9988"/>
<path opacity="0.1" d="M196.257 194.585V204.158C193.065 203.887 189.884 203.519 186.711 203.054V194.585H196.257Z" fill="#2A9988"/>
<path opacity="0.1" d="M148.719 134.243H107.798V135.153H148.719V134.243Z" fill="#2A9988"/>
<path opacity="0.1" d="M148.719 136.364H107.798V139.853H148.719V136.364Z" fill="#2A9988"/>
<path opacity="0.1" d="M148.719 151.288H107.798V156.898H148.719V151.288Z" fill="#2A9988"/>
<path opacity="0.1" d="M148.716 168.334V173.944H116.709C115.32 172.881 113.947 171.79 112.591 170.671C111.653 169.896 110.724 169.102 109.778 168.334H148.716Z" fill="#2A9988"/>
<path opacity="0.1" d="M148.716 185.376V190.981H145.337C141.54 189.266 137.817 187.395 134.169 185.368L148.716 185.376Z" fill="#2A9988"/>
<path opacity="0.1" d="M227.808 99.7205H219.752V107.787H227.808V99.7205Z" fill="#2A9988"/>
<path opacity="0.1" d="M53.3893 62.1381H45.3337V70.2043H53.3893V62.1381Z" fill="#2A9988"/>
<path opacity="0.1" d="M53.3893 80.874H45.3337V88.9401H53.3893V80.874Z" fill="#2A9988"/>
<path opacity="0.1" d="M53.3893 99.6099H45.3337V107.676H53.3893V99.6099Z" fill="#2A9988"/>
<path opacity="0.1" d="M53.3893 118.343H45.3337V126.409H53.3893V118.343Z" fill="#2A9988"/>
<path opacity="0.1" d="M53.3893 137.079H45.3337V145.145H53.3893V137.079Z" fill="#2A9988"/>
<path opacity="0.1" d="M53.3893 155.815H45.3337V163.881H53.3893V155.815Z" fill="#2A9988"/>
<path opacity="0.1" d="M258.56 99.7205H250.504V107.787H258.56V99.7205Z" fill="#2A9988"/>
<path opacity="0.1" d="M227.808 119.616H219.752V127.682H227.808V119.616Z" fill="#2A9988"/>
<path opacity="0.1" d="M258.56 119.616H250.504V127.682H258.56V119.616Z" fill="#2A9988"/>
<path opacity="0.1" d="M227.808 139.509H219.752V147.576H227.808V139.509Z" fill="#2A9988"/>
<path opacity="0.1" d="M258.56 139.509H250.504V147.576H258.56V139.509Z" fill="#2A9988"/>
<path opacity="0.1" d="M227.808 159.405H219.752V167.471H227.808V159.405Z" fill="#2A9988"/>
<path opacity="0.1" d="M258.56 159.405H250.504V167.471H258.56V159.405Z" fill="#2A9988"/>
<path opacity="0.1" d="M227.808 179.301H219.752V187.367H227.808V179.301Z" fill="#2A9988"/>
<path opacity="0.1" d="M258.56 179.301H250.504V187.367H258.56V179.301Z" fill="#2A9988"/>
<path opacity="0.1" d="M219.752 204.396V199.194H227.805V203.656L219.752 204.396Z" fill="#2A9988"/>
<path opacity="0.1" d="M5.09851 84.6234V89.2379H32.667V84.6234H5.09851ZM7.84601 88.9486H5.59703V84.907H7.86301L7.84601 88.9486ZM10.5907 88.9486H8.3247V84.907H10.5907V88.9486ZM13.3297 88.9486H11.0637V84.907H13.3297V88.9486ZM16.0744 88.9486H13.8112V84.907H16.0772L16.0744 88.9486ZM18.8162 88.9486H16.5502V84.907H18.8162V88.9486ZM21.5609 88.9486H19.2949V84.907H21.5609V88.9486ZM24.3055 88.9486H22.0396V84.907H24.3055V88.9486ZM27.0474 88.9486H24.7814V84.907H27.0474V88.9486ZM29.7892 88.9486H27.5232V84.907H29.7892V88.9486ZM32.531 88.9486H30.2651V84.907H32.531V88.9486Z" fill="#2A9988"/>
<path opacity="0.1" d="M5.09851 98.0499V102.664H32.667V98.0499H5.09851ZM7.84601 102.372H5.59703V98.3421H7.86301L7.84601 102.372ZM10.5907 102.372H8.3247V98.3421H10.5907V102.372ZM13.3297 102.372H11.0637V98.3421H13.3297V102.372ZM16.0744 102.372H13.8112V98.3421H16.0772L16.0744 102.372ZM18.8162 102.372H16.5502V98.3421H18.8162V102.372ZM21.5609 102.372H19.2949V98.3421H21.5609V102.372ZM24.3055 102.372H22.0396V98.3421H24.3055V102.372ZM27.0474 102.372H24.7814V98.3421H27.0474V102.372ZM29.7892 102.372H27.5232V98.3421H29.7892V102.372ZM32.531 102.372H30.2651V98.3421H32.531V102.372Z" fill="#2A9988"/>
<path opacity="0.1" d="M5.09851 111.482V116.105H32.667V111.482H5.09851ZM7.84601 115.805H5.59703V111.771H7.86301L7.84601 115.805ZM10.5907 115.805H8.3247V111.771H10.5907V115.805ZM13.3297 115.805H11.0637V111.771H13.3297V115.805ZM16.0744 115.805H13.8112V111.771H16.0772L16.0744 115.805ZM18.8162 115.805H16.5502V111.771H18.8162V115.805ZM21.5609 115.805H19.2949V111.771H21.5609V115.805ZM24.3055 115.805H22.0396V111.771H24.3055V115.805ZM27.0474 115.805H24.7814V111.771H27.0474V115.805ZM29.7892 115.805H27.5232V111.771H29.7892V115.805ZM32.531 115.805H30.2651V111.771H32.531V115.805Z" fill="#2A9988"/>
<path opacity="0.1" d="M5.09851 124.914V129.523H32.667V124.914H5.09851ZM7.84601 129.237H5.59703V125.201H7.86301L7.84601 129.237ZM10.5907 129.237H8.3247V125.201H10.5907V129.237ZM13.3297 129.237H11.0637V125.201H13.3297V129.237ZM16.0744 129.237H13.8112V125.201H16.0772L16.0744 129.237ZM18.8162 129.237H16.5502V125.201H18.8162V129.237ZM21.5609 129.237H19.2949V125.201H21.5609V129.237ZM24.3055 129.237H22.0396V125.201H24.3055V129.237ZM27.0474 129.237H24.7814V125.201H27.0474V129.237ZM29.7892 129.237H27.5232V125.201H29.7892V129.237ZM32.531 129.237H30.2651V125.201H32.531V129.237Z" fill="#2A9988"/>
<path opacity="0.1" d="M5.21741 138.344C5.32787 138.778 5.4525 139.212 5.58279 139.64V138.633H7.84878V142.666H6.63648C6.6733 142.76 6.71012 142.862 6.74694 142.95H32.6669V138.344H5.21741ZM10.5991 142.666H8.33313V138.633H10.5991V142.666ZM13.3381 142.666H11.0721V138.633H13.3381V142.666ZM16.0828 142.666H13.8111V138.633H16.0771L16.0828 142.666ZM18.8246 142.666H16.5586V138.633H18.8246V142.666ZM21.5693 142.666H19.3033V138.633H21.5693V142.666ZM24.314 142.666H22.048V138.633H24.314V142.666ZM27.0558 142.666H24.7898V138.633H27.0558V142.666ZM29.7976 142.666H27.5317V138.633H29.7976V142.666ZM32.5395 142.666H30.2735V138.633H32.5395V142.666Z" fill="#2A9988"/>
<path opacity="0.1" d="M11.6188 151.776C11.6896 151.867 11.7576 151.969 11.8312 152.059H13.3296V153.997C13.491 154.189 13.6497 154.382 13.8139 154.564V152.048H16.0799V156.095H15.1622C15.2528 156.189 15.3406 156.288 15.4454 156.379H32.6754V151.776H11.6188ZM18.8161 156.095H16.5501V152.065H18.8161V156.095ZM21.5608 156.095H19.2948V152.065H21.5608V156.095ZM24.3054 156.095H22.0395V152.065H24.3054V156.095ZM27.0473 156.095H24.7813V152.065H27.0473V156.095ZM29.7891 156.095H27.5231V152.065H29.7891V156.095ZM32.5309 156.095H30.265V152.065H32.5309V156.095Z" fill="#2A9988"/>
<path opacity="0.1" d="M26.7415 165.205C26.9992 165.353 27.2626 165.489 27.5289 165.636V165.495H29.7949V166.771L30.2764 166.995V165.495H32.5424V167.948C32.5858 167.97 32.6314 167.987 32.6783 167.999V165.205H26.7415Z" fill="#2A9988"/>
<path opacity="0.1" d="M213.705 94.7061H213.722H213.705ZM196.257 178.413H196.54H196.257ZM178.052 135.822C178.106 136.004 178.151 136.185 178.202 136.364C178.157 136.185 178.109 136.004 178.052 135.822ZM213.705 94.6976H213.722H213.705ZM42.623 52.2285V53.4395H55.2757V52.2285H42.623ZM196.257 178.413H196.54H196.257ZM178.052 135.822C178.106 136.004 178.151 136.185 178.202 136.364C178.157 136.185 178.109 136.004 178.052 135.822ZM213.705 94.6976H213.722H213.705ZM196.257 178.405H196.54H196.257ZM178.052 135.822C178.106 136.004 178.151 136.185 178.202 136.364C178.157 136.185 178.109 136.004 178.052 135.822Z" fill="#2A9988"/>
<path d="M130.747 107.682C130.747 107.682 129.631 107.526 129.631 105.898C129.631 104.27 128.832 101.229 128.832 101.229C128.832 101.215 128.141 95.9341 127.187 95.0946C126.232 94.2551 125.006 89.3258 125.006 89.3258C125.006 89.3258 124.796 86.6513 124.368 86.0755C123.941 85.4998 123.363 84.0902 122.51 82.0793C121.658 80.0685 118.103 78.6759 118.103 78.6759C118.103 78.6759 111.676 74.9435 109.855 73.7268C109.689 73.6268 109.534 73.5099 109.393 73.3779C109.076 72.961 107.694 72.9525 107.694 72.9525C107.549 72.0392 107.41 70.9898 107.365 70.0397C107.365 69.9376 107.365 69.8355 107.351 69.7334C109.382 68.5314 110.911 66.6362 111.659 64.3957C111.693 64.2879 111.721 64.1745 111.753 64.0667C111.874 64.0266 111.986 63.9614 112.081 63.8755C112.176 63.7895 112.253 63.6846 112.305 63.5675C112.469 63.2017 112.472 62.7734 112.676 62.4331C112.914 62.0303 113.367 61.8148 113.724 61.5113C114.625 60.7455 114.857 59.4551 114.814 58.2809C114.786 57.3307 114.633 56.3721 114.693 55.4277L114.71 55.1894C114.727 55.0476 114.746 54.9058 114.772 54.7697C114.911 54.0663 115.214 53.4026 115.384 52.7049C115.554 52.0072 115.571 51.2216 115.174 50.6203C114.593 49.7383 113.384 49.5624 112.322 49.4717C111.118 49.3696 110.042 49.5029 109.271 48.5017C108.911 47.9784 108.505 47.4878 108.059 47.0354C107.9 46.8879 106.359 45.9463 106.359 45.8839C104.856 45.1864 103.151 45.0555 101.558 45.5152C100.76 45.7477 100.006 46.1278 99.1961 46.3178C97.4485 46.7319 95.4374 46.2838 93.9532 47.285C93.1261 47.8522 92.6305 48.7541 92.1659 49.6333C91.7883 50.3575 91.4049 51.0807 91.0159 51.803C90.39 52.9914 89.7527 54.1996 89.4892 55.5156C89.4338 55.8019 89.3998 56.092 89.3873 56.3835V56.3976C89.3873 56.5026 89.3873 56.6075 89.3873 56.7125V56.8458C89.3873 56.945 89.3873 57.0415 89.4043 57.1294C89.4213 57.2173 89.4184 57.2457 89.4269 57.3052C89.4354 57.3648 89.4496 57.4981 89.4666 57.5888C89.4836 57.6796 89.5176 57.8384 89.5516 57.9632C89.5657 58.0171 89.5855 58.0682 89.6025 58.1192C89.6309 58.2156 89.6649 58.3092 89.7017 58.4028C89.7215 58.451 89.7413 58.5021 89.764 58.5503C89.8065 58.6496 89.8575 58.746 89.9084 58.8339C89.9311 58.8736 89.9481 58.9105 89.9708 58.9474C90.0498 59.0793 90.1368 59.2062 90.2313 59.3274C90.8375 60.0847 91.7297 60.5668 92.3897 61.2759C92.3897 61.3042 92.3897 61.3326 92.3897 61.3581C92.3897 61.4376 92.3897 61.5141 92.3897 61.5935C92.4247 63.1749 92.8451 64.7237 93.6142 66.1052C94.3833 67.4868 95.4779 68.6593 96.8027 69.5207C96.8027 69.6285 96.8169 69.7391 96.8225 69.8469C96.8778 70.6887 96.8673 71.5336 96.7914 72.3739C96.676 72.2379 96.5316 72.1295 96.3689 72.0569C96.2061 71.9842 96.0291 71.9491 95.851 71.9541C95.7293 71.9482 95.6073 71.9587 95.4884 71.9853L95.4629 71.9655V71.991C94.8398 72.1442 94.0722 72.7937 93.3386 74.64C93.3386 74.64 91.1066 77.1586 89.4071 77.0536C87.7076 76.9487 83.4051 79.6743 83.4051 79.6743C83.4051 79.6743 79.2074 82.4027 78.3066 85.1821C77.8032 86.7582 77.1996 88.3005 76.4995 89.7995L71.3104 100.506L70.353 109C70.353 109 70.8827 112.778 70.7779 113.354C70.6731 113.93 72.9561 119.123 72.9561 119.123C72.9561 119.123 80.499 132.393 83.5807 133.074L83.8016 132.918C83.9335 132.987 84.0733 133.039 84.218 133.074L84.8525 132.626C84.8906 133.125 84.8744 133.628 84.8043 134.123C84.3795 135.434 84.9629 143.985 85.7051 145.661C86.4472 147.337 86.1837 169.315 86.1837 169.315L86.0789 171.255C86.0789 171.255 86.0789 171.317 86.1044 171.425L86.0789 171.884L86.1554 171.924C86.2348 172.54 86.209 173.164 86.0789 173.771C85.8127 174.621 85.7051 177.027 85.7051 177.027C85.7051 177.027 83.5835 190.606 84.5891 193.335C85.5946 196.063 86.45 199.052 86.45 199.052C86.45 199.052 87.5122 202.456 86.501 203.037C85.4898 203.619 82.6148 204.594 83.2068 206.012C83.745 207.323 85.7872 210.834 86.0903 211.347L86.0648 211.617L85.6484 216.135C85.7158 216.731 85.8774 217.313 86.1271 217.859C86.5831 218.843 87.4697 219.864 89.155 219.754C89.4383 219.734 89.7668 219.7 90.0841 219.657C93.1686 219.243 96.967 217.865 96.967 217.865C96.7698 217.739 96.589 217.59 96.4288 217.42C96.2772 217.272 96.1571 217.096 96.0757 216.901C95.9944 216.706 95.9536 216.496 95.9558 216.285C96.0011 215.463 94.4631 211.543 94.0807 210.579C94.0212 210.44 93.99 210.36 93.99 210.36C93.99 210.36 97.4967 206.69 96.9132 203.437C96.9132 203.437 93.0327 201.168 94.3101 199.923C95.5876 198.678 97.8705 195.102 97.8705 195.102C97.8705 195.102 97.9753 181.729 97.8705 179.732C97.7612 178.346 97.8269 176.952 98.066 175.583C98.1085 175.376 98.1595 175.174 98.2133 174.976C99.9799 175.24 101.763 175.376 103.55 175.382C104.201 175.382 104.864 175.382 105.532 175.342C105.532 175.531 105.541 175.735 105.558 175.954C105.705 179.267 105.98 185.076 106.204 187.234C106.521 190.328 108.274 198.667 108.274 198.667C108.274 198.667 104.929 200.816 108.858 206.114C108.858 206.114 108.858 208.035 108.597 208.313C108.319 209.221 108.095 210.145 107.926 211.081C107.762 212.079 107.694 213.089 107.96 213.613C108.597 214.867 112.421 214.765 112.421 214.765L112.514 214.748C113.236 214.673 113.966 214.743 114.661 214.953C115.356 215.162 116.002 215.508 116.562 215.97C118.015 217.139 123.53 216.625 126.515 216.254C127.685 216.106 128.467 215.97 128.467 215.97C128.505 215.838 128.518 215.699 128.507 215.562C128.475 214.827 127.9 213.216 124.003 211.778C124.003 211.778 120.338 209.311 120.389 207.161H120.312H119.887C120.196 207.144 120.394 207.161 120.394 207.161C120.394 207.161 118.958 201.914 119.545 201.489C120.131 201.063 118.375 195.249 118.375 195.249C118.375 195.249 117.369 185.493 117.315 184.809C117.318 184.222 117.407 183.64 117.579 183.079L117.315 177.73C117.315 177.73 117.265 175.952 117.315 175.373C117.307 174.871 117.266 174.37 117.194 173.873C117.168 173.674 117.143 173.467 117.114 173.263C118.488 172.914 119.38 172.591 119.38 172.591L119.222 153.971C120.389 151.702 120.604 146.725 120.598 143.194C120.598 140.925 120.496 139.246 120.496 139.246L122.091 136.639C122.091 136.639 122.459 133.519 121.876 132.836C121.618 132.527 121.734 132.206 121.947 131.942C122.057 131.855 122.173 131.775 122.295 131.704C122.295 131.704 122.278 131.679 122.258 131.642C122.37 131.549 122.488 131.464 122.612 131.389C122.612 131.389 122.046 130.51 122.553 130.139C123.029 130.462 123.453 130.706 123.776 130.904C123.754 131.111 123.731 131.231 123.731 131.231L123.867 130.947C124.179 131.123 124.368 131.231 124.368 131.231C124.368 131.231 126.867 126.247 126.813 125.513C126.759 124.778 128.512 121.684 128.512 121.684C128.512 121.684 128.725 120.059 129.682 119.378C130.639 118.697 130.424 113.765 130.424 113.765C130.424 113.765 130.69 111.196 131.328 110.146C131.965 109.097 130.747 107.682 130.747 107.682ZM82.9462 105.495L82.9944 106.683C82.7111 106.227 82.5072 105.898 82.5072 105.898L82.9462 105.495Z" fill="url(#paint0_linear_28_350)"/>
<path d="M124.504 129.078L123.892 131.687C123.892 131.687 118.992 129.183 118.109 126.001C117.225 122.818 119.587 121.61 119.587 121.61L124.153 123.547L124.504 129.078Z" fill="white"/>
<path opacity="0.1" d="M124.504 129.078L123.892 131.687C123.892 131.687 118.992 129.183 118.109 126.001C117.225 122.818 119.587 121.61 119.587 121.61L124.153 123.547L124.504 129.078Z" fill="black"/>
<path d="M97.0038 217.882C97.0038 217.882 92.4718 219.55 89.3561 219.759C87.7019 219.87 86.8324 218.855 86.3848 217.876C86.1404 217.332 85.9827 216.753 85.9175 216.16L86.3225 211.665L86.5378 209.271L93.1573 207.55L94.0948 210.42L94.1826 210.638C94.5594 211.597 96.0691 215.497 96.0238 216.311C96.0219 216.519 96.0621 216.726 96.1419 216.918C96.2217 217.111 96.3395 217.285 96.4883 217.431C96.6403 217.603 96.8135 217.754 97.0038 217.882Z" fill="white"/>
<path d="M127.96 215.596C127.971 215.732 127.958 215.87 127.92 216.001C127.92 216.001 118.228 217.621 116.245 216.001C115.686 215.528 115.034 215.177 114.332 214.971C113.629 214.765 112.892 214.708 112.166 214.805C112.166 214.805 108.416 214.907 107.79 213.67C107.529 213.151 107.597 212.144 107.759 211.152C107.923 210.221 108.143 209.302 108.416 208.398L108.566 208.278L109.458 207.561L119.904 207.252H119.984C119.933 209.39 123.53 211.844 123.53 211.844C127.351 213.262 127.915 214.864 127.96 215.596Z" fill="white"/>
<path opacity="0.1" d="M127.96 215.596C127.97 215.733 127.956 215.87 127.918 216.001C127.918 216.001 118.228 217.621 116.245 216.001C115.686 215.529 115.035 215.178 114.333 214.972C113.631 214.766 112.894 214.709 112.169 214.805C112.169 214.805 108.416 214.907 107.793 213.67C107.532 213.148 107.597 212.144 107.759 211.152C109.203 211.296 111.483 211.656 112.379 212.516C113.732 213.823 116.027 215.128 117.435 215.23C118.536 215.301 125.128 215.511 127.96 215.596Z" fill="black"/>
<path opacity="0.1" d="M97.0038 217.882C97.0038 217.882 92.4718 219.55 89.3561 219.759C87.702 219.87 86.8324 218.855 86.3877 217.873C87.5405 218.262 89.1409 218.67 89.9821 218.296C90.9791 217.853 94.5141 217.567 96.4968 217.445C96.6477 217.61 96.8179 217.757 97.0038 217.882Z" fill="black"/>
<path d="M103.728 83.4889C99.9892 82.034 95.1796 77.2266 96.3806 74.9804C96.6473 74.4135 96.8059 73.8017 96.848 73.1766C96.9252 72.3279 96.9366 71.4744 96.882 70.624C96.7978 69.2311 96.6303 67.8446 96.3806 66.4718C96.3806 66.4718 108.053 66.7356 107.373 68.4571C107.175 68.962 107.144 69.8384 107.198 70.8197C107.252 71.801 107.393 72.91 107.541 73.8487C107.745 75.1364 107.948 76.1177 107.948 76.1177C107.948 76.1177 107.235 77.1189 106.815 77.1727C106.396 77.2266 109.093 85.5622 103.728 83.4889Z" fill="#CF6F80"/>
<path opacity="0.1" d="M94.1742 210.638L94.0864 210.735C90.5968 206.509 86.3764 211.776 86.3764 211.776L86.3141 211.665L86.5294 209.271L93.1489 207.55L94.0864 210.42L94.1742 210.638Z" fill="black"/>
<path opacity="0.1" d="M119.987 207.55C119.987 207.55 117.437 207.496 116.078 208.698C114.718 209.901 108.147 208.959 108.43 208.698C108.514 208.569 108.565 208.421 108.577 208.267L109.47 207.55L119.916 207.24C119.955 207.431 119.987 207.55 119.987 207.55Z" fill="black"/>
<path d="M98.5164 174.363C98.3265 174.833 98.1823 175.321 98.0858 175.818C97.8496 177.181 97.784 178.568 97.8904 179.948C97.9952 181.933 97.8904 195.238 97.8904 195.238C97.8904 195.238 95.6499 198.786 94.4008 200.037C93.1516 201.287 96.95 203.534 96.95 203.534C97.5165 206.767 94.0835 210.42 94.0835 210.42C90.5939 206.194 86.3735 211.464 86.3735 211.464C86.3735 211.464 84.0792 207.493 83.5071 206.075C82.9349 204.657 85.7476 203.675 86.7361 203.1C87.7246 202.524 86.6879 199.129 86.6879 199.129C86.6879 199.129 85.8524 196.154 84.861 193.44C83.8696 190.725 85.9543 177.214 85.9543 177.214C85.9543 177.214 86.062 174.814 86.3197 173.978C86.4498 173.374 86.4756 172.752 86.3962 172.14C86.3792 171.933 86.3594 171.76 86.3452 171.643C86.331 171.527 86.3197 171.473 86.3197 171.473L86.3594 171.405L87.7756 168.762C87.7756 168.762 99.1962 172.698 98.5164 174.363Z" fill="#2A9988"/>
<path d="M119.987 207.238C119.987 207.238 117.437 207.184 116.078 208.372C114.718 209.56 108.147 208.633 108.43 208.372C108.713 208.111 108.691 206.18 108.691 206.18C104.836 200.91 108.124 198.772 108.124 198.772C108.124 198.772 106.402 190.476 106.09 187.398C105.872 185.249 105.603 179.471 105.459 176.173C105.396 174.755 105.36 173.779 105.36 173.779L108.509 173.144L108.914 173.062L116.511 171.536C116.511 171.536 116.721 172.954 116.862 174.114C116.933 174.609 116.973 175.108 116.981 175.608C116.93 176.176 116.981 177.951 116.981 177.951L117.239 183.275C117.071 183.833 116.984 184.413 116.981 184.996C117.032 185.674 118.021 195.38 118.021 195.38C118.021 195.38 119.74 201.171 119.154 201.588C118.567 202.005 119.987 207.238 119.987 207.238Z" fill="#2A9988"/>
<path opacity="0.1" d="M107.374 68.4571C107.175 68.962 107.144 69.8384 107.198 70.8197C105.634 71.7624 103.837 72.2444 102.012 72.2103C100.188 72.1762 98.4094 71.6274 96.8821 70.6268C96.798 69.233 96.6306 67.8455 96.3807 66.4718C96.3807 66.4718 108.053 66.7299 107.374 68.4571Z" fill="black"/>
<path d="M111.886 62.1892C111.888 63.2112 111.727 64.227 111.41 65.1984C110.7 67.3747 109.245 69.2299 107.301 70.4359C105.358 71.6418 103.051 72.1211 100.789 71.7888C98.5267 71.4565 96.4546 70.3341 94.9388 68.62C93.4231 66.9059 92.5613 64.7105 92.5058 62.4217C92.5058 62.3423 92.5058 62.2686 92.5058 62.1892C92.4838 60.9008 92.7182 59.6211 93.1954 58.4244C93.6726 57.2278 94.3829 56.1382 95.285 55.2194C96.1871 54.3005 97.2629 53.5707 98.4496 53.0725C99.6364 52.5744 100.91 52.3178 102.197 52.3178C103.484 52.3178 104.758 52.5744 105.945 53.0725C107.131 53.5707 108.207 54.3005 109.109 55.2194C110.011 56.1382 110.722 57.2278 111.199 58.4244C111.676 59.6211 111.91 60.9008 111.888 62.1892H111.886Z" fill="#CF6F80"/>
<path opacity="0.1" d="M103.728 83.489C99.9892 82.034 95.1796 77.2267 96.3806 74.9804C96.6473 74.4135 96.8059 73.8018 96.848 73.1766L101.966 77.3883L105.133 79.9891L107.541 73.8516C107.745 75.1392 107.948 76.1205 107.948 76.1205C107.948 76.1205 107.235 77.1217 106.815 77.1756C106.396 77.2295 109.093 85.5622 103.728 83.489Z" fill="black"/>
<path d="M116.964 102.103L112.69 174L107.116 174.366L92.6814 132.677L95.0494 83.1826L95.5479 72.7256L101.966 78.0037L105.136 80.6045L107.614 74.2883L112.223 78.31L116.964 102.103Z" fill="#2A9988"/>
<path opacity="0.1" d="M98.5163 174.363C98.3265 174.833 98.1823 175.321 98.0858 175.818C94.0296 175.191 90.0903 173.959 86.399 172.162L86.3225 172.123L86.348 171.666L86.3622 171.428L87.7784 168.785C87.7784 168.785 99.1961 172.698 98.5163 174.363Z" fill="black"/>
<path opacity="0.1" d="M108.575 175.83C107.538 176.006 106.492 176.126 105.442 176.187C105.379 174.769 105.343 173.793 105.343 173.793L108.492 173.158L108.575 175.83Z" fill="black"/>
<path opacity="0.1" d="M116.845 174.128C114.832 174.653 111.721 175.243 108.937 174.874L108.897 173.076L116.494 171.55C116.494 171.55 116.704 172.954 116.845 174.128Z" fill="black"/>
<path opacity="0.1" d="M108.886 175.203C97.2729 177.188 86.6369 171.496 86.6369 171.496L86.7389 169.567C86.7389 169.567 87.0023 147.703 86.2716 146.027C85.5408 144.351 84.9715 135.851 85.385 134.546C85.7985 133.241 83.8753 113.677 83.8753 113.677L83.5637 105.736L72.1602 101.11L77.2586 90.4688C77.9473 88.9768 78.5395 87.4421 79.0317 85.8742C79.9183 83.1117 84.0339 80.3975 84.0339 80.3975C84.0339 80.3975 88.2543 77.6861 89.9226 77.7882C91.5909 77.8903 93.7776 75.3888 93.7776 75.3888C95.3921 71.2678 96.8537 73.134 96.8537 73.134C96.8537 73.3297 96.8537 73.134 96.7744 73.7438C96.2079 78.2675 105.935 92.5619 106.073 92.8143L107 115.407L107.937 143.999L108.886 175.203Z" fill="black"/>
<path d="M108.574 175.203C96.9613 177.188 86.3225 171.496 86.3225 171.496L86.4273 169.567C86.4273 169.567 86.6908 147.703 85.9571 146.027C85.2235 144.351 84.657 135.851 85.0734 134.546C85.4898 133.241 83.5637 113.677 83.5637 113.677L83.2493 105.736L71.8401 101.093L76.9385 90.4518C77.6257 88.9592 78.2179 87.4246 78.7117 85.8572C79.5954 83.0947 83.7138 80.3805 83.7138 80.3805C83.7138 80.3805 87.9342 77.6691 89.5997 77.7712C91.2652 77.8733 93.4547 75.3718 93.4547 75.3718C95.0721 71.2508 96.8537 73.117 96.8537 73.117C96.8537 73.3127 96.6837 73.4006 96.7744 73.7268C98.0207 78.1144 105.623 92.5449 105.762 92.7973L106.699 115.39L107.637 143.982L108.574 175.203Z" fill="white"/>
<path opacity="0.1" d="M105.445 93.4412C104.195 92.9193 97.5788 85.3552 97.5788 85.3552V83.6336C97.3381 83.0664 95.9077 83.4124 94.7463 83.8095L95.2449 73.3524L95.8114 73.8232C97.052 78.208 105.3 93.1887 105.445 93.4412Z" fill="black"/>
<path d="M105.759 92.8143C104.507 92.2925 97.8903 84.7283 97.8903 84.7283V83.0068C97.6496 82.4395 96.2192 82.7856 95.0579 83.1826L95.5592 72.7256L96.1257 73.1964C97.3692 77.5811 105.62 92.5647 105.759 92.8143Z" fill="white"/>
<path opacity="0.1" d="M86.6369 130.539C86.7927 130.539 94.7123 129.705 94.7123 129.705C94.7123 129.705 99.5077 139.146 99.1933 141.444C98.8789 143.741 98.3096 145.775 96.3807 145.414C94.4517 145.054 85.9996 145.698 85.9996 145.698L86.6369 130.539Z" fill="black"/>
<path d="M86.3226 129.912C86.4784 129.912 94.398 129.078 94.398 129.078C94.398 129.078 99.1906 138.522 98.879 140.817C98.5674 143.111 97.9924 145.148 96.0663 144.788C94.1402 144.427 85.6853 145.071 85.6853 145.071L86.3226 129.912Z" fill="white"/>
<path d="M92.2906 125.479C92.2906 125.479 99.5587 129.39 99.7145 130.584C99.8703 131.778 96.0153 130.062 95.1825 129.855C94.6344 129.723 94.0765 129.635 93.5142 129.594L87.9597 129.744L92.2906 125.479Z" fill="#CF6F80"/>
<path opacity="0.1" d="M103.416 93.929C103.839 93.929 104.181 93.5861 104.181 93.1632C104.181 92.7403 103.839 92.3975 103.416 92.3975C102.994 92.3975 102.652 92.7403 102.652 93.1632C102.652 93.5861 102.994 93.929 103.416 93.929Z" fill="black"/>
<path d="M103.416 93.617C103.839 93.617 104.181 93.2741 104.181 92.8512C104.181 92.4283 103.839 92.0854 103.416 92.0854C102.994 92.0854 102.652 92.4283 102.652 92.8512C102.652 93.2741 102.994 93.617 103.416 93.617Z" fill="#3F3D56"/>
<path opacity="0.1" d="M104.824 127.078C105.247 127.078 105.589 126.735 105.589 126.313C105.589 125.89 105.247 125.547 104.824 125.547C104.402 125.547 104.06 125.89 104.06 126.313C104.06 126.735 104.402 127.078 104.824 127.078Z" fill="black"/>
<path d="M104.824 126.764C105.247 126.764 105.589 126.421 105.589 125.998C105.589 125.575 105.247 125.232 104.824 125.232C104.402 125.232 104.06 125.575 104.06 125.998C104.06 126.421 104.402 126.764 104.824 126.764Z" fill="#3F3D56"/>
<path opacity="0.1" d="M104.178 110.504C104.601 110.504 104.943 110.161 104.943 109.738C104.943 109.315 104.601 108.972 104.178 108.972C103.756 108.972 103.414 109.315 103.414 109.738C103.414 110.161 103.756 110.504 104.178 110.504Z" fill="black"/>
<path d="M104.178 110.192C104.601 110.192 104.943 109.849 104.943 109.426C104.943 109.003 104.601 108.66 104.178 108.66C103.756 108.66 103.414 109.003 103.414 109.426C103.414 109.849 103.756 110.192 104.178 110.192Z" fill="#3F3D56"/>
<path d="M121.808 129.435C121.808 129.435 122.329 130.218 121.808 130.584C121.287 130.95 121.859 131.835 121.859 131.835C121.859 131.835 120.559 132.598 121.131 133.284C121.703 133.97 121.341 137.07 121.341 137.07L119.777 139.663C119.777 139.663 119.87 141.333 119.876 143.591C119.876 147.113 119.669 152.065 118.525 154.323L118.684 172.846C118.684 172.846 113.208 174.848 108.626 174.239L107.946 144.515C107.946 144.515 108.937 127.66 109.302 124.427C109.516 122.748 109.603 121.056 109.563 119.364C109.563 119.364 109.407 114.304 108.883 111.956C108.883 111.956 108.317 101.782 108.26 98.9661C108.235 97.6189 108.305 93.6879 108.385 89.9498C108.473 85.8629 108.572 82.0085 108.572 82.0085L107.538 73.8176C107.538 73.8176 108.572 73.7126 108.883 74.1295C109.023 74.2601 109.175 74.3769 109.336 74.4784C111.121 75.6866 117.426 79.402 117.426 79.402C117.426 79.402 120.916 80.7918 121.751 82.7828C122.587 84.7738 123.167 86.1862 123.572 86.7534C123.978 87.3207 124.198 89.9867 124.198 89.9867C124.198 89.9867 125.399 94.8933 126.337 95.7243C127.275 96.5553 127.96 101.842 127.96 101.842L119.675 108.365C119.675 108.365 118.947 119.216 118.791 119.636C118.635 120.056 121.808 129.435 121.808 129.435Z" fill="white"/>
<path d="M122.122 129.435C122.122 129.435 122.641 130.218 122.122 130.584C121.604 130.95 122.17 131.835 122.17 131.835C122.17 131.835 120.879 132.606 121.445 133.292C122.012 133.979 121.655 137.079 121.655 137.079L120.091 139.671C120.091 139.671 120.185 141.342 120.193 143.599C120.193 147.122 119.987 152.074 118.842 154.331L118.998 172.855C118.998 172.855 113.514 174.857 108.937 174.247L108.26 144.524C108.26 144.524 109.251 127.668 109.617 124.435C109.831 122.757 109.917 121.064 109.875 119.372C109.875 119.372 109.719 114.313 109.198 111.964C109.198 111.964 108.631 101.791 108.572 98.9746C108.546 97.6274 108.62 93.6964 108.696 89.9583C108.784 85.8714 108.883 82.017 108.883 82.017L107.518 73.7155C107.518 73.7155 108.883 73.7155 109.198 74.138C109.336 74.2701 109.488 74.3871 109.651 74.4869C111.435 75.6951 117.743 79.4105 117.743 79.4105C117.743 79.4105 121.23 80.8003 122.066 82.7913C122.901 84.7823 123.482 86.1947 123.89 86.7619C124.298 87.3292 124.513 89.9952 124.513 89.9952C124.513 89.9952 125.714 94.9018 126.651 95.7328C127.589 96.5638 128.266 101.839 128.266 101.839L119.981 108.362C119.981 108.362 119.253 119.214 119.094 119.633C118.936 120.053 122.122 129.435 122.122 129.435Z" fill="white"/>
<path opacity="0.1" d="M112.2 84.4249L112.948 86.6087L109.011 90.5794C109.099 86.4953 109.198 82.6381 109.198 82.6381L107.832 74.3365C107.832 74.3365 109.198 74.3365 109.512 74.7591C109.65 74.8909 109.802 75.0069 109.965 75.1052L113.313 84.7766L112.2 84.4249Z" fill="black"/>
<path d="M111.886 83.7981L112.636 85.982L108.699 89.9526C108.787 85.8657 108.886 82.0113 108.886 82.0113L107.518 73.7098C107.518 73.7098 108.886 73.7098 109.198 74.1324C109.337 74.2637 109.488 74.3805 109.651 74.4812L113.002 84.1498L111.886 83.7981Z" fill="white"/>
<path opacity="0.1" d="M111.886 62.1892C111.888 63.2112 111.727 64.227 111.41 65.1984C111.356 65.2067 111.302 65.2042 111.249 65.1911C111.197 65.1779 111.147 65.1544 111.104 65.1218C111.03 62.5692 109.775 60.1726 108.232 58.1334C107.798 57.5177 107.273 56.9724 106.674 56.5168C106.068 56.0613 105.315 55.848 104.561 55.9183C103.711 56.0346 102.96 56.6132 102.102 56.6869C100.969 56.7805 99.9552 55.9949 98.8307 55.9552C98.3736 55.9596 97.9226 56.0615 97.508 56.2542C97.0933 56.4469 96.7244 56.7259 96.426 57.0727C95.8352 57.7724 95.3963 58.5876 95.1372 59.4664C94.6918 60.799 94.4493 62.1911 94.4177 63.5959C94.4036 64.39 94.3271 65.3855 93.5907 65.6748C93.6461 65.0908 93.5798 64.5016 93.396 63.9445C93.2122 63.3875 92.9148 62.8747 92.5228 62.4387L92.5058 62.4217C92.5058 62.3423 92.5058 62.2686 92.5058 62.1892C92.4838 60.9008 92.7182 59.621 93.1954 58.4244C93.6726 57.2278 94.3829 56.1382 95.285 55.2194C96.1871 54.3005 97.2629 53.5707 98.4496 53.0725C99.6364 52.5744 100.91 52.3178 102.197 52.3178C103.484 52.3178 104.758 52.5744 105.945 53.0725C107.131 53.5707 108.207 54.3005 109.109 55.2194C110.011 56.1382 110.722 57.2278 111.199 58.4244C111.676 59.621 111.91 60.9008 111.888 62.1892H111.886Z" fill="black"/>
<path d="M106.209 46.7802C104.738 46.0869 103.063 45.9558 101.502 46.4114C100.717 46.644 99.978 47.0212 99.182 47.2113C97.4825 47.6225 95.4998 47.1772 94.0411 48.1727C93.231 48.74 92.7438 49.6362 92.2906 50.5069L91.1576 52.6681C90.5401 53.8508 89.917 55.0533 89.6592 56.3551C89.4015 57.6569 89.5573 59.1147 90.3815 60.1613C90.982 60.9242 91.8686 61.4036 92.52 62.1211C92.9103 62.5576 93.2064 63.07 93.3896 63.6264C93.5729 64.1828 93.6394 64.771 93.5851 65.3544C94.3243 65.0707 94.3951 64.0724 94.4121 63.2783C94.4437 61.8734 94.6862 60.4813 95.1316 59.1488C95.3901 58.2697 95.8291 57.4544 96.4204 56.755C96.719 56.4086 97.088 56.1297 97.5026 55.937C97.9172 55.7444 98.3681 55.6423 98.8251 55.6376C99.9581 55.6773 100.975 56.4601 102.097 56.3665C102.946 56.2956 103.7 55.7142 104.555 55.6007C105.309 55.5292 106.063 55.7427 106.668 56.1991C107.267 56.6541 107.792 57.1995 108.223 57.8158C109.77 59.855 111.025 62.2459 111.098 64.8041C111.418 65.0395 111.88 64.7332 112.039 64.3702C112.197 64.0072 112.203 63.5817 112.404 63.2357C112.636 62.8358 113.081 62.6231 113.429 62.3225C114.313 61.5595 114.534 60.2747 114.5 59.1091C114.466 57.9434 114.239 56.7607 114.46 55.6149C114.594 54.9115 114.894 54.2535 115.058 53.5586C115.222 52.8638 115.242 52.0838 114.854 51.4854C114.288 50.6062 113.095 50.4332 112.056 50.3509C110.875 50.2488 109.818 50.3793 109.065 49.3838C108.711 48.8643 108.313 48.3765 107.875 47.926C107.725 47.7785 106.209 46.8426 106.209 46.7802Z" fill="#512E4E"/>
<path opacity="0.1" d="M75.4231 106.59L72.4632 101.11L71.5256 109.565C71.5256 109.565 72.0468 113.32 71.942 113.896C71.8372 114.472 74.0777 119.633 74.0777 119.633C74.0777 119.633 81.479 132.833 84.5012 133.514L94.7123 126.208L92.0044 122.765C92.0044 122.765 91.0669 122.399 90.8318 122.765C90.8318 122.765 85.8041 114.103 85.283 113.476C84.7618 112.849 84.8638 111.598 84.8638 111.598C84.8638 111.598 84.082 110.765 84.3426 109.982C84.6032 109.199 82.8329 106.485 82.8329 106.485L84.4474 104.973L75.4231 106.59Z" fill="black"/>
<path d="M72.619 100.486L71.8372 101.11L70.8997 109.565C70.8997 109.565 71.4208 113.32 71.316 113.896C71.2112 114.471 73.4546 119.633 73.4546 119.633C73.4546 119.633 80.853 132.833 83.8752 133.514L94.0892 126.208L91.3785 122.764C91.3785 122.764 90.4409 122.399 90.2058 122.764C90.2058 122.764 85.1782 114.103 84.657 113.476C84.1358 112.849 84.2406 111.598 84.2406 111.598C84.2406 111.598 83.4589 110.765 83.7195 109.982C83.98 109.199 82.2069 106.485 82.2069 106.485L83.8214 104.973L72.619 100.486Z" fill="white"/>
<path opacity="0.1" d="M121.131 133.607C121.697 134.296 121.34 137.391 121.34 137.391L119.777 139.983C119.777 139.983 119.87 141.656 119.876 143.911L117.248 144.734C117.01 144.808 116.758 144.824 116.513 144.781C116.268 144.738 116.037 144.637 115.838 144.487C115.64 144.336 115.481 144.14 115.374 143.915C115.266 143.69 115.215 143.443 115.222 143.194L115.676 128.556L121.808 130.904C121.287 131.267 121.859 132.158 121.859 132.158C121.859 132.158 120.559 132.918 121.131 133.607Z" fill="black"/>
<path d="M121.445 133.292C122.012 133.982 121.655 137.079 121.655 137.079L120.091 139.671C120.091 139.671 120.185 141.342 120.193 143.599L117.517 144.436C117.284 144.508 117.037 144.524 116.798 144.482C116.558 144.439 116.331 144.34 116.137 144.193C115.943 144.045 115.787 143.853 115.682 143.633C115.577 143.413 115.527 143.171 115.534 142.927L115.99 128.244L122.125 130.592C121.601 130.955 122.173 131.843 122.173 131.843C122.173 131.843 120.879 132.606 121.445 133.292Z" fill="white"/>
<path d="M123.476 126.315C123.476 126.315 123.06 128.979 122.017 129.135C120.975 129.291 120.508 133.443 119.468 133.295C118.429 133.148 119.117 129.435 119.154 128.715C119.191 127.994 118.021 125.011 118.896 124.333C119.771 123.655 122.541 124.333 122.541 124.333L123.476 126.315Z" fill="#CF6F80"/>
<path opacity="0.1" d="M125.694 105.807L127.66 101.836C127.66 101.836 128.441 104.863 128.441 106.479C128.441 108.096 129.535 108.255 129.535 108.255C129.535 108.255 130.733 109.673 130.101 110.705C129.47 111.737 129.215 114.307 129.215 114.307C129.215 114.307 129.422 119.211 128.484 119.889C127.546 120.567 127.351 122.186 127.351 122.186C127.351 122.186 125.629 125.263 125.683 125.995C125.736 126.727 123.286 131.682 123.286 131.682C123.286 131.682 124.484 125.524 117.502 122.864C117.502 122.864 117.449 120.774 117.97 120.201C118.491 119.628 119.304 119.367 118.794 116.471C118.284 113.575 118.647 110.115 118.647 109.42C118.647 108.725 120.21 104.392 120.21 104.392L125.694 105.807Z" fill="black"/>
<path d="M126.544 101.269L128.26 101.836C128.26 101.836 129.045 104.862 129.045 106.479C129.045 108.096 130.138 108.255 130.138 108.255C130.138 108.255 131.336 109.673 130.705 110.705C130.073 111.737 129.821 114.307 129.821 114.307C129.821 114.307 130.028 119.211 129.09 119.889C128.153 120.566 127.943 122.186 127.943 122.186C127.943 122.186 126.224 125.263 126.278 125.995C126.331 126.727 123.878 131.682 123.878 131.682C123.878 131.682 125.079 125.524 118.095 122.864C118.095 122.864 118.044 120.774 118.565 120.201C119.086 119.628 119.899 119.367 119.389 116.471C118.879 113.575 119.242 110.115 119.242 109.42C119.242 108.725 120.805 104.392 120.805 104.392L126.544 101.269Z" fill="white"/>
<path opacity="0.1" d="M88.631 204.186C88.631 204.186 91.3672 202.464 93.163 203.715C94.9587 204.966 88.631 204.186 88.631 204.186Z" fill="black"/>
<path opacity="0.1" d="M109.892 198.862C109.892 198.862 112.313 198.55 114.347 200.743C116.381 202.935 109.892 198.862 109.892 198.862Z" fill="black"/>
<g opacity="0.1">
<path opacity="0.1" d="M113.435 61.7013C113.087 62.0019 112.639 62.2175 112.407 62.6174C112.209 62.9606 112.203 63.3832 112.044 63.7519C111.886 64.1206 111.424 64.4212 111.104 64.1886C111.03 61.6361 109.773 59.2395 108.229 57.1974C107.797 56.5812 107.273 56.0358 106.674 55.5808C106.068 55.1244 105.313 54.911 104.558 54.9824C103.708 55.0986 102.961 55.6772 102.102 55.7481C100.969 55.8446 99.9525 55.0589 98.828 55.0192C98.371 55.0238 97.9203 55.1261 97.5061 55.3193C97.0918 55.5125 96.7236 55.7922 96.4261 56.1395C95.8348 56.8379 95.3958 57.6522 95.1373 58.5304C94.6922 59.8631 94.4497 61.2551 94.4179 62.6599C94.4009 63.4512 94.3272 64.4382 93.5964 64.7332C93.6134 64.9427 93.6134 65.1533 93.5964 65.3628C94.3329 65.0792 94.4065 64.0809 94.4235 63.2867C94.4551 61.8819 94.6976 60.4898 95.143 59.1572C95.4015 58.2782 95.8404 57.4629 96.4317 56.7635C96.7299 56.4171 97.0983 56.1383 97.5125 55.9456C97.9266 55.7529 98.377 55.6508 98.8337 55.646C99.9667 55.6857 100.986 56.4685 102.108 56.3749C102.958 56.304 103.711 55.7226 104.564 55.6092C105.319 55.5378 106.073 55.7512 106.68 56.2076C107.278 56.6626 107.803 57.208 108.235 57.8242C109.778 59.8634 111.036 62.2544 111.11 64.8126C111.43 65.048 111.891 64.7417 112.05 64.3787C112.209 64.0156 112.214 63.5902 112.413 63.2442C112.645 62.8443 113.092 62.6316 113.441 62.3309C114.325 61.568 114.545 60.2832 114.511 59.1175C114.511 59.0807 114.511 59.0438 114.511 59.0098C114.458 60.0194 114.189 61.049 113.435 61.7013Z" fill="black"/>
<path opacity="0.1" d="M92.5257 61.5C91.8742 60.7824 90.9848 60.3031 90.3872 59.543C89.8839 58.8701 89.5965 58.0601 89.5629 57.2202C89.4738 58.2698 89.7665 59.3164 90.3872 60.167C90.9848 60.9299 91.8742 61.4092 92.5257 62.1268C93.1512 62.8287 93.5267 63.7183 93.5936 64.6567C93.6369 64.0856 93.5647 63.5117 93.3812 62.9692C93.1977 62.4268 92.9067 61.9271 92.5257 61.5Z" fill="black"/>
<path opacity="0.1" d="M115.064 52.9375C114.897 53.6323 114.599 54.2932 114.463 54.9937C114.383 55.4618 114.353 55.9373 114.375 56.4118C114.385 56.1415 114.414 55.8723 114.463 55.6063C114.599 54.903 114.897 54.245 115.064 53.5501C115.161 53.1668 115.193 52.7698 115.157 52.3759C115.14 52.5651 115.108 52.7528 115.064 52.9375Z" fill="black"/>
</g>
<path opacity="0.1" d="M37.5955 215.718C52.8384 215.718 65.1952 213.731 65.1952 211.279C65.1952 208.828 52.8384 206.841 37.5955 206.841C22.3526 206.841 9.99585 208.828 9.99585 211.279C9.99585 213.731 22.3526 215.718 37.5955 215.718Z" fill="#2A9988"/>
<path d="M38.4848 126.25H36.7089V166.289H38.4848V126.25Z" fill="#535461"/>
<path d="M49.6448 166.167L49.5344 167.971L49.3758 170.523L49.3106 171.584L49.1548 174.136L49.0869 175.197L48.9282 177.75L47.1381 206.699C47.0603 207.944 46.5114 209.113 45.6032 209.968C44.6949 210.823 43.4956 211.299 42.2493 211.299H32.9417C31.6957 211.299 30.4967 210.823 29.5889 209.968C28.6811 209.113 28.1328 207.944 28.0557 206.699L26.2741 177.73L26.1155 175.177L26.0503 174.117L25.8917 171.564L25.8265 170.503L25.6679 167.951L25.5546 166.147C25.535 165.8 25.5863 165.452 25.7056 165.126C25.8249 164.799 26.0095 164.5 26.2482 164.248C26.4869 163.995 26.7747 163.794 27.0938 163.657C27.4129 163.52 27.7566 163.449 28.1039 163.45H47.1409C47.4869 163.453 47.8286 163.527 48.1449 163.667C48.4612 163.807 48.7455 164.011 48.9801 164.266C49.2147 164.52 49.3948 164.82 49.5091 165.147C49.6234 165.474 49.6696 165.821 49.6448 166.167Z" fill="#3F3D56"/>
<path d="M49.5344 167.971L49.3758 170.515H25.8152L25.6566 167.971H49.5344Z" fill="#9D9CB5"/>
<path d="M49.3106 171.575L49.1548 174.122H26.039L25.8804 171.575H49.3106Z" fill="#9D9CB5"/>
<path d="M49.0868 175.186L48.9311 177.73H26.2627L26.1041 175.186H49.0868Z" fill="#9D9CB5"/>
<path d="M22.9459 141.256C33.2872 148.75 37.6039 160.469 37.6039 160.469C37.6039 160.469 25.141 160.041 14.7968 152.547C4.45261 145.054 0.144409 133.338 0.144409 133.338C0.144409 133.338 12.6016 133.763 22.9459 141.256Z" fill="#2A9988"/>
<path d="M0.135986 133.338C0.135986 133.338 13.0747 140.528 17.2243 146.481C21.3739 152.434 37.604 160.469 37.604 160.469" stroke="#535461" stroke-width="2" stroke-miterlimit="10"/>
<path d="M29.622 126.162C35.2501 130.238 37.6039 136.616 37.6039 136.616C37.6039 136.616 30.8201 136.384 25.1892 132.308C19.5582 128.233 17.2101 121.851 17.2101 121.851C17.2101 121.851 23.991 122.084 29.622 126.162Z" fill="#2A9988"/>
<path d="M17.2101 121.851C17.2101 121.851 24.2516 125.765 26.5091 129.004C28.7666 132.243 37.6039 136.616 37.6039 136.616" stroke="#535461" stroke-width="2" stroke-miterlimit="10"/>
<path d="M45.7757 136.293C39.3091 143.409 37.941 152.709 37.941 152.709C37.941 152.709 47.0588 150.468 53.5197 143.35C59.9805 136.231 61.3543 126.934 61.3543 126.934C61.3543 126.934 52.2422 129.177 45.7757 136.293Z" fill="#2A9988"/>
<path d="M61.36 126.937C61.36 126.937 52.9362 134.231 50.7948 139.257C48.6535 144.283 37.941 152.709 37.941 152.709" stroke="#535461" stroke-width="2" stroke-miterlimit="10"/>
<path d="M283.154 133.789C283.154 133.789 278.478 110.492 280.268 107.594C280.268 107.594 280.333 104.899 280.225 101.465C280.225 101.334 280.225 101.204 280.225 101.07C280.54 101.281 280.869 101.47 281.208 101.638C282.858 102.486 284.751 102.731 286.562 102.33L285.145 100.75C284.805 100.373 284.451 99.9644 284.378 99.4652C284.304 98.966 284.508 98.5207 284.684 98.0755C286.029 94.672 286.1 90.3922 283.508 87.7943C281.319 85.6104 280.786 82.7912 278.41 80.7974C276.673 79.3367 275.719 77.1954 274.818 75.125C274.056 73.3751 273.289 71.611 272.852 69.7561C272.513 68.3068 272.377 66.8065 271.909 65.3912C271.442 63.9759 270.567 62.6004 269.199 61.9679C268.711 61.7438 268.17 61.6162 267.726 61.3184C267.142 60.9242 266.791 60.2832 266.369 59.7217C264.225 56.8855 257.044 58.556 253.645 59.7075C252.721 59.9974 251.866 60.4722 251.13 61.1029L251.161 61.0518C251.187 61.0093 251.218 60.9667 251.246 60.9242C250.874 61.2254 250.553 61.5845 250.295 61.9878C249.799 62.7734 249.592 63.6895 249.179 64.5403C248.68 65.5472 245.907 68.3579 247.1 69.4895C247.183 69.5655 247.279 69.6268 247.383 69.671C247.83 69.8576 248.323 69.9069 248.799 69.8128L248.748 69.9348C248.341 70.9332 248.132 72.0016 248.133 73.0801C248.133 77.74 251.971 81.5178 256.71 81.5178C257.601 81.5186 258.487 81.3818 259.336 81.1122C259.356 81.22 259.373 81.3278 259.392 81.4355C259.392 81.4781 259.407 81.5206 259.412 81.5632L259.262 81.773C259.255 81.7601 259.246 81.7478 259.237 81.7362L254.79 87.9588C254.11 88.4381 250.195 91.2743 249.975 93.4014C249.742 95.7299 249.51 98.4555 249.51 98.4555L249.479 99.0398C249.284 99.2024 249.057 99.3208 248.813 99.3869C248.568 99.453 248.312 99.4652 248.063 99.4226C246.675 99.1957 246.675 104.528 246.675 104.528C246.675 104.528 245.751 105.379 245.117 104.641C244.482 103.904 242.806 106.403 242.806 106.403L232.297 106.856L232.056 106.87L231.49 105.115C231.429 104.93 231.297 104.776 231.124 104.687C230.95 104.599 230.749 104.582 230.564 104.641C230.52 104.656 230.477 104.674 230.436 104.695L230.396 104.718L230.323 104.769L230.286 104.803C230.266 104.821 230.247 104.841 230.229 104.862L230.195 104.902L230.178 104.919C230.113 105.01 230.07 105.114 230.052 105.225C230.034 105.335 230.043 105.448 230.076 105.554L230.564 107.061C228.535 107.469 226.462 108.62 228.153 111.791L219.582 110.206L222.355 112.537L236.67 115.495C236.481 115.836 236.605 116.329 237.197 117.024C239.746 120.022 244.392 120.836 246.261 121.046C246.755 122.152 247.371 123.198 248.099 124.166L247.938 127.152C247.938 127.152 243.205 149.915 242.338 151.07C242.776 150.573 243.176 150.045 243.536 149.49C242.163 154.167 240.242 160.568 239.738 161.527C238.928 163.058 238.177 169.255 239.101 169.652C239.384 169.774 240.194 169.715 241.35 169.627V170.14L241.299 189.594C241.299 189.594 241.531 201.526 240.894 202.663C240.256 203.8 240.086 206.185 240.086 206.185C240.086 206.185 237.537 210.891 235.518 212.782C235.504 212.797 235.489 212.81 235.472 212.822L235.41 212.38C235.41 212.38 232.982 215.448 227.612 215.275C227.612 215.275 224.38 217.38 229.173 217.493C233.965 217.607 240.086 217.323 240.086 217.323C240.086 217.323 244.361 210.8 247.941 211.651V216.594H249.037V211.571C249.545 211.236 249.98 210.801 250.316 210.293C250.651 209.784 250.88 209.213 250.989 208.613C251.082 207.995 251.014 207.363 250.789 206.78C250.565 206.196 250.192 205.682 249.708 205.286C249.491 205.09 249.317 204.85 249.196 204.582C249.076 204.315 249.012 204.025 249.009 203.732L248.969 203.766C248.969 203.667 248.943 203.565 248.932 203.46C248.618 200.907 248.224 195.64 249.615 191.743C251.521 186.4 252.099 178.958 250.711 174.528C250.263 173.112 249.895 171.671 249.609 170.214C249.575 170.03 249.544 169.854 249.516 169.689C250.464 169.818 251.404 170.007 252.328 170.257C255.543 171.144 262.576 171.309 268.581 171.261C268.595 171.425 268.612 171.598 268.632 171.771C268.739 172.974 268.963 174.163 269.3 175.322C270.054 177.591 270.399 187.594 270.399 187.594C270.399 187.594 271.371 195.819 270.841 199.166C270.558 201.026 270.275 202.895 270.113 204.773V204.81C270.113 204.81 268.522 209.348 267.357 211.812C267.329 211.875 267.298 211.937 267.27 211.997C266.959 212.025 266.654 212.093 266.36 212.198C266.36 212.198 264.8 215.318 263.245 215.834C261.69 216.35 262.205 218.049 265.726 217.425C269.247 216.801 274.563 216.291 274.563 216.291L274.793 213.109L275.875 211.753L275.591 214.927L276.744 214.7L276.591 210.84L278.362 208.622C278.362 208.622 280.5 206.716 277.322 202.966V203.049C277.288 202.995 277.257 202.938 277.22 202.884V202.867C276.693 202.05 276.274 200.527 277.042 197.824C278.43 192.94 279.237 188.507 279.237 188.507C279.237 188.507 282.336 176.632 278.611 171.014H278.775C278.393 170.223 278.124 169.383 277.974 168.518C277.955 168.416 277.938 168.311 277.923 168.203C280.679 168.044 283.384 167.545 285.59 166.467C285.582 166.456 284.253 138.276 283.154 133.789ZM248.165 114.134V114.191L247.598 114.219L248.165 114.134ZM246.221 114.403C246.128 114.424 246.041 114.466 245.967 114.525C245.723 114.87 245.57 115.271 245.522 115.691L244.638 115.493C244.638 115.493 244.018 115.359 243.126 115.209L242.704 114.783C243.865 114.687 245.071 114.545 246.221 114.403Z" fill="url(#paint1_linear_28_350)"/>
<path d="M275.461 210.879L275.124 214.898L276.254 214.671L276.084 210.312L275.461 210.879Z" fill="#1D2366"/>
<path d="M249.677 191.797C248.315 195.683 248.7 200.927 249.006 203.474C249.119 204.416 249.224 204.989 249.224 204.989C249.224 204.989 247.187 209.634 247.017 209.81C246.848 209.986 241.024 213.545 241.024 213.545L236.954 215.925C236.954 215.925 232.824 214.113 234.804 213.489C235.208 213.326 235.573 213.077 235.872 212.76C237.854 210.874 240.344 206.185 240.344 206.185C240.344 206.185 240.514 203.806 241.137 202.674C241.76 201.543 241.534 189.65 241.534 189.65L241.582 170.265V167.738L249.329 167.795C249.378 168.653 249.489 169.506 249.663 170.347C249.941 171.8 250.301 173.235 250.742 174.647C252.107 179.069 251.541 186.474 249.677 191.797Z" fill="#FFB0B1"/>
<path opacity="0.1" d="M249.224 204.989C249.224 204.989 247.187 209.634 247.017 209.81C246.848 209.986 241.024 213.545 241.024 213.545L236.954 215.925C236.954 215.925 232.824 214.113 234.804 213.489C235.208 213.326 235.573 213.077 235.872 212.76L236.047 213.999L237.404 213.942L249.017 203.48C249.119 204.416 249.224 204.989 249.224 204.989Z" fill="black"/>
<path d="M249.082 203.743L237.404 214.277L236.047 214.334L235.764 212.348C235.764 212.348 233.39 215.406 228.116 215.236C228.116 215.236 224.95 217.332 229.643 217.445C234.336 217.559 240.33 217.275 240.33 217.275C240.33 217.275 244.516 210.752 248.02 211.603V216.529H249.096V211.557C249.597 211.22 250.024 210.785 250.352 210.278C250.68 209.771 250.902 209.203 251.006 208.607C251.099 207.994 251.033 207.368 250.814 206.787C250.595 206.207 250.231 205.693 249.756 205.295C249.544 205.096 249.375 204.856 249.259 204.589C249.144 204.322 249.083 204.034 249.082 203.743Z" fill="#1D2366"/>
<path d="M276.538 197.856C275.784 200.55 276.195 202.067 276.71 202.881V202.898C277.371 203.903 277.831 205.027 278.064 206.208L278.11 206.463L272.796 214.22L269.912 215.355C269.912 215.355 265.276 213.769 266.123 213.316C266.335 213.205 266.666 212.615 267.046 211.801C268.179 209.348 269.742 204.821 269.742 204.821V204.784C269.907 202.915 270.167 201.052 270.456 199.197C270.975 195.859 270.023 187.665 270.023 187.665C270.023 187.665 269.683 177.702 268.946 175.435C268.614 174.283 268.393 173.102 268.287 171.907C268.134 170.489 268.1 169.321 268.1 169.321C268.1 169.321 271.153 165.066 276.75 169.661C277.198 170.027 277.591 170.455 277.92 170.932C281.786 176.439 278.673 188.573 278.673 188.573C278.673 188.573 277.894 192.986 276.538 197.856Z" fill="#FFB0B1"/>
<path opacity="0.1" d="M278.118 206.463L272.804 214.22L269.921 215.355C269.921 215.355 265.284 213.769 266.131 213.316C266.343 213.205 266.675 212.615 267.054 211.801C269.017 211.784 270.034 213.656 270.034 213.656L272.521 213.259C272.521 213.259 275.801 206.804 276.537 206.409C277.274 206.015 276.651 203.463 276.651 203.463V202.813C276.671 202.836 276.688 202.861 276.71 202.884V202.901C277.371 203.906 277.831 205.03 278.064 206.211L278.118 206.463Z" fill="black"/>
<path d="M270.204 213.823C270.204 213.823 268.788 211.22 266.074 212.181C266.074 212.181 264.548 215.301 263.021 215.806C261.494 216.311 262.004 218.012 265.454 217.391C268.904 216.77 274.104 216.257 274.104 216.257L274.331 213.083L277.838 208.61C277.838 208.61 279.928 206.713 276.818 202.978V203.627C276.818 203.627 277.441 206.18 276.705 206.574C275.968 206.968 272.7 213.426 272.7 213.426L270.204 213.823Z" fill="#1D2366"/>
<path opacity="0.1" d="M249.337 167.789C249.386 168.647 249.498 169.5 249.671 170.342C246.482 169.874 243.522 170.106 241.582 170.259V167.732L249.337 167.789Z" fill="black"/>
<path opacity="0.1" d="M278.234 171.638C278.234 171.638 273.702 171.859 268.298 171.904C268.145 170.486 268.111 169.318 268.111 169.318C268.111 169.318 271.164 165.063 276.761 169.658C277.209 170.025 277.603 170.452 277.931 170.929C278.019 171.171 278.12 171.407 278.234 171.638Z" fill="black"/>
<path d="M278.234 171.127C278.234 171.127 258.384 172.089 252.334 170.39C246.284 168.691 240.287 170.163 239.384 169.769C238.48 169.374 239.214 163.2 240.007 161.671C240.8 160.143 245.151 144.683 245.151 144.683L249.337 122.827L253.747 121.61L254.059 121.522L261.743 119.401L267.374 117.844C267.374 117.844 278.571 161.615 277.611 164.842C277.262 166.078 277.206 167.378 277.447 168.64C277.593 169.501 277.858 170.338 278.234 171.127Z" fill="#1D2366"/>
<path d="M234.744 107.88C234.744 107.88 230.779 112.134 233.781 114.506C236.784 116.877 238.758 114.732 238.758 114.732L234.744 107.88Z" fill="#C7DAF5"/>
<path opacity="0.1" d="M234.744 107.88C234.744 107.88 230.779 112.134 233.781 114.506C236.784 116.877 238.758 114.732 238.758 114.732L234.744 107.88Z" fill="black"/>
<path d="M266.782 79.9097C266.782 79.9097 266.318 80.3521 265.618 81.0045C264.621 81.9376 263.146 83.3018 261.837 84.4448C260.024 86.0245 258.529 87.1845 259.064 86.1947C259.599 85.2049 259.497 83.4805 259.231 81.8667C259.211 81.7589 259.194 81.6511 259.174 81.5462C258.954 80.361 258.662 79.1903 258.299 78.0407C258.299 78.0407 261.228 74.2515 262.848 72.7568C263.451 72.1896 263.873 71.957 263.899 72.3513C263.927 72.8816 264.324 74.053 264.817 75.2952C264.831 75.3349 264.845 75.3718 264.862 75.4115C265.191 76.2624 265.562 77.1359 265.887 77.8903C266.386 79.0475 266.782 79.9097 266.782 79.9097Z" fill="#FFB0B1"/>
<path opacity="0.1" d="M264.862 75.4115C264.587 76.8938 263.919 78.2749 262.928 79.4104C261.938 80.5459 260.661 81.3942 259.231 81.8666C259.006 80.5719 258.695 79.2938 258.299 78.0406C258.299 78.0406 263.814 70.9076 263.899 72.3512C263.919 72.8986 264.349 74.1125 264.862 75.4115Z" fill="black"/>
<path opacity="0.1" d="M258.682 83.7726L259.395 82.7657C259.395 82.7657 259.868 85.653 261.608 84.3795C263.347 83.1061 263.432 93.963 263.432 93.963L261.565 121.908L248.077 121.1L248.459 107.597L249.986 100.79L253.762 90.8943L256.008 87.6241L258.682 83.7726Z" fill="black"/>
<path d="M263.432 94.136L261.732 119.404L261.554 122.081L254.034 121.63L253.75 121.613L248.085 121.273L248.468 107.767L249.994 100.96L253.77 91.0644L256.016 87.7943L258.69 83.9286L259.404 82.9246C259.404 82.9246 259.877 85.8118 261.616 84.5384L261.653 84.5128C263.352 83.4351 263.432 94.136 263.432 94.136Z" fill="#1D2366"/>
<path d="M250.184 98.5945C250.184 98.5945 249.507 100.013 248.148 99.7828C246.788 99.5531 246.791 104.888 246.791 104.888C246.791 104.888 245.887 105.739 245.264 105.001C244.641 104.264 242.998 106.757 242.998 106.757L232.705 107.211C232.705 107.211 237.285 109.307 236.387 115.648C236.387 115.648 251.938 114.684 252.447 113.212C252.957 111.74 250.184 98.5945 250.184 98.5945Z" fill="white"/>
<path opacity="0.03" d="M250.184 98.5945C250.184 98.5945 249.507 100.013 248.148 99.7828C246.788 99.5531 246.791 104.888 246.791 104.888C246.791 104.888 245.887 105.739 245.264 105.001C244.641 104.264 242.998 106.757 242.998 106.757L232.705 107.211C232.705 107.211 237.285 109.307 236.387 115.648C236.387 115.648 251.938 114.684 252.447 113.212C252.957 111.74 250.184 98.5945 250.184 98.5945Z" fill="black"/>
<path d="M220.27 110.543L222.984 112.863L245.321 117.563L242.551 114.732L220.27 110.543Z" fill="white"/>
<path d="M258.724 84.666C258.353 85.2332 257.291 88.1375 256.404 90.673C255.665 92.786 255.048 94.6437 255.048 94.6437C255.048 94.6437 253.606 104.043 252.869 105.742C252.133 107.441 252.532 114.066 252.532 114.066L249.788 130.428C249.788 130.428 248.544 138.866 246.624 143.906C244.729 148.866 242.619 151.192 242.553 151.265C243.403 150.114 248.034 127.441 248.034 127.441L249.564 98.847C249.564 98.847 249.788 96.1299 250.014 93.807C250.241 91.4842 254.829 88.3133 254.829 88.3133L259.254 82.0142C259.698 82.6098 259.401 83.6478 258.724 84.666Z" fill="white"/>
<path d="M247.187 121.414C247.187 121.414 240.673 121.131 237.517 117.336C234.362 113.541 244.811 115.822 244.811 115.822L247.527 116.445L247.187 121.414Z" fill="#FFB0B1"/>
<path opacity="0.1" d="M277.611 164.845C277.262 166.081 277.206 167.381 277.447 168.643C270.34 169.148 262.738 167.225 262.738 167.225C261.321 168.529 257.591 170.452 257.591 170.452L255.557 145.21C254.257 141.807 253.747 123.976 253.747 123.976C253.747 123.976 253.864 123.042 254.031 121.644C254.031 121.61 254.031 121.573 254.045 121.539C254.552 117.634 255.557 110.302 256.05 109.312C256.73 107.951 253.96 104.329 253.96 104.329L255.22 93.5659L255.373 92.267C258.03 91.0786 260.067 87.2838 260.067 87.2838L261.63 84.5412C263.33 83.4492 263.417 94.1502 263.417 94.1502L261.718 119.418L267.349 117.861C267.349 117.861 278.571 161.617 277.611 164.845Z" fill="black"/>
<path d="M284.905 166.589C277.158 170.441 263.078 166.873 263.078 166.873C261.661 168.178 257.931 170.101 257.931 170.101L255.894 144.858C254.597 141.455 254.087 123.624 254.087 123.624C254.087 123.624 255.724 110.319 256.404 108.961C256.603 108.564 256.506 107.974 256.271 107.338C255.115 104.315 254.69 101.06 255.03 97.8401L255.574 93.2143L255.724 91.9181C258.384 90.7269 260.421 86.9321 260.421 86.9321L261.837 84.4476L264.443 79.87L265.678 77.7031L265.887 77.8931L267.488 79.3453C267.488 79.3453 268.168 79.9125 269.187 80.7634C271.405 82.6353 275.237 85.9309 277.214 87.9474C278.954 89.7229 279.503 96.629 279.662 101.828C279.767 105.251 279.704 107.934 279.704 107.934C277.951 110.824 282.537 134.027 282.537 134.027C283.605 138.511 284.905 166.589 284.905 166.589Z" fill="white"/>
<path opacity="0.03" d="M270.034 86.8754C270.034 86.8754 264.718 97.0091 265.335 100.861C265.953 104.712 267.709 109.071 266.862 110.09C266.571 110.475 266.195 110.788 265.763 111.004C265.331 111.22 264.855 111.333 264.372 111.335C263.522 111.391 261.256 112.977 261.256 113.147C261.256 113.317 259.163 113.317 257.291 114.111C255.419 114.905 252.654 115.356 252.654 115.356C252.654 115.356 247.272 115.186 246.771 115.697C246.27 116.207 245.754 119.262 246.828 121.698C247.901 124.134 249.094 125.952 249.994 126.284C250.895 126.616 256.611 124.699 261.248 124.245C265.885 123.791 270.918 120.113 270.918 120.113C270.918 120.113 276.461 118.127 277.433 114.789C278.404 111.451 276.246 93.1037 276.246 93.1037C276.246 93.1037 274.614 84.5525 270.034 86.8754Z" fill="black"/>
<path opacity="0.03" d="M269.354 86.0245C269.354 86.0245 264.038 96.161 264.661 100.01C265.284 103.858 267.035 108.221 266.185 109.242C265.895 109.628 265.519 109.941 265.088 110.157C264.656 110.373 264.18 110.486 263.698 110.487C262.848 110.543 260.582 112.129 260.582 112.299C260.582 112.469 258.489 112.469 256.617 113.26C254.744 114.052 251.98 114.506 251.98 114.506C251.98 114.506 246.598 114.335 246.1 114.846C245.601 115.356 245.08 118.414 246.156 120.847C247.233 123.281 248.422 125.102 249.323 125.433C250.224 125.765 255.94 123.848 260.577 123.397C265.213 122.946 270.247 119.262 270.247 119.262C270.247 119.262 275.787 117.276 276.747 113.941C277.707 110.606 275.56 92.2528 275.56 92.2528C275.56 92.2528 273.935 83.7045 269.354 86.0245Z" fill="black"/>
<path d="M269.867 86.3649C269.867 86.3649 264.551 96.5014 265.174 100.35C265.797 104.199 267.547 108.561 266.7 109.579C266.41 109.966 266.035 110.28 265.602 110.497C265.17 110.714 264.694 110.827 264.211 110.827C263.361 110.884 261.095 112.469 261.095 112.636C261.095 112.804 259.005 112.807 257.129 113.601C255.254 114.395 252.493 114.846 252.493 114.846C252.493 114.846 247.111 114.676 246.61 115.186C246.108 115.697 245.593 118.754 246.666 121.188C247.74 123.621 248.932 125.442 249.833 125.774C250.734 126.106 256.45 124.188 261.086 123.734C265.723 123.281 270.756 119.602 270.756 119.602C270.756 119.602 276.3 117.617 277.271 114.279C278.243 110.94 276.099 92.5931 276.099 92.5931C276.099 92.5931 274.444 84.0562 269.867 86.3649Z" fill="white"/>
<path opacity="0.1" d="M269.751 113.553C269.751 113.553 265.502 112.702 266.981 114.12C268.459 115.538 268.451 116.78 270.261 116.723C272.071 116.667 269.751 113.553 269.751 113.553Z" fill="black"/>
<path opacity="0.1" d="M276.931 144.064C276.931 144.064 275.011 145.366 278.685 148.367C282.358 151.367 276.931 144.064 276.931 144.064Z" fill="black"/>
<path opacity="0.1" d="M273.266 154.765C273.266 154.935 272.586 161.005 275.13 162.522C277.673 164.04 273.266 154.765 273.266 154.765Z" fill="black"/>
<path d="M232.881 107.197C230.83 107.268 226.4 107.894 228.697 112.186C230.728 115.983 234.141 113.445 236.061 111.519C235.593 109.724 234.454 108.176 232.881 107.197Z" fill="#FFB0B1"/>
<path d="M236.087 111.485L236.172 111.397L236.087 111.485Z" fill="#FFB0B1"/>
<path opacity="0.1" d="M269.187 80.9364C267.012 82.4254 265.188 83.6818 264.831 83.9428C263.857 84.666 261.998 88.9118 260.8 91.0786C259.846 92.8229 256.744 93.271 255.574 93.3816L255.724 92.0855C258.384 90.8943 260.421 87.0995 260.421 87.0995L265.678 77.8705L267.488 79.5183C267.488 79.5183 268.168 80.0855 269.187 80.9364Z" fill="black"/>
<path d="M269.187 80.7662C267.012 82.2552 265.188 83.5117 264.831 83.7754C263.857 84.4958 261.998 88.7416 260.8 90.9085C259.846 92.6527 256.744 93.1008 255.574 93.2114L255.724 91.9153C258.384 90.7241 260.421 86.9293 260.421 86.9293L265.678 77.7003L267.488 79.3425C267.488 79.3425 268.168 79.904 269.187 80.7662Z" fill="#DCE7FF"/>
<path d="M265.001 73.5396C265.002 75.2421 264.486 76.9048 263.522 78.3072C262.384 79.9654 260.689 81.1599 258.746 81.674C256.803 82.1881 254.741 81.9878 252.933 81.1094C251.124 80.2311 249.691 78.7328 248.892 76.8865C248.092 75.0401 247.981 72.9681 248.577 71.0464C249.173 69.1246 250.437 67.4804 252.14 66.4122C253.843 65.3439 255.872 64.9223 257.859 65.224C259.846 65.5256 261.659 66.5304 262.969 68.0561C264.28 69.5818 265 71.5273 265.001 73.5396Z" fill="#FFB0B1"/>
<path opacity="0.1" d="M279.662 101.831C278.511 101.122 277.575 100.114 276.951 98.915C276.478 97.979 276.164 96.8984 275.356 96.2348C274.628 95.6392 273.657 95.4945 272.751 95.2279C269.771 94.3459 267.273 91.6231 267.179 88.5147C267.134 87.0512 267.59 85.5905 267.383 84.1412C267.265 83.321 266.94 82.5447 266.437 81.8865C266.187 81.5717 265.914 81.2768 265.618 81.0044C265.222 80.63 264.805 80.267 264.443 79.8699C264.214 79.6241 264.015 79.3529 263.848 79.0616C263.713 78.8233 263.604 78.5714 263.522 78.31C262.956 76.5743 263.471 74.5152 262.848 72.7596L262.814 72.6632C262.579 72.0392 262.1 71.4153 261.435 71.3671C260.769 71.3188 260.2 71.8719 259.565 72.1186C258.237 72.6348 256.804 71.7556 255.696 70.8594C254.589 69.9631 253.34 68.9393 251.932 69.1378C251 69.2711 250.264 69.9064 249.405 70.2354C249.212 70.3105 249.012 70.3684 248.808 70.4084C249.534 68.5947 250.868 67.0909 252.582 66.1553C254.295 65.2197 256.28 64.9108 258.196 65.2817C260.112 65.6525 261.84 66.6799 263.081 68.1874C264.323 69.6949 265.002 71.5883 265.001 73.5424C265.002 74.1325 264.94 74.721 264.817 75.298C264.831 75.3377 264.845 75.3746 264.862 75.4143C265.191 76.2652 265.562 77.1387 265.887 77.8931L267.488 79.3453C267.488 79.3453 268.168 79.9125 269.187 80.7634C271.405 82.6352 275.237 85.9309 277.214 87.9474C278.954 89.7285 279.497 96.6318 279.662 101.831Z" fill="black"/>
<path d="M249.306 65.0537C249.711 64.2284 249.912 63.3038 250.397 62.521C251.108 61.3865 252.348 60.6604 253.623 60.2208C256.951 59.0722 263.984 57.4045 266.086 60.2208C266.499 60.7881 266.842 61.4177 267.414 61.8091C267.85 62.1069 268.377 62.2345 268.856 62.4586C270.196 63.0882 271.051 64.4609 271.507 65.862C271.963 67.2631 272.099 68.7663 272.433 70.2099C272.861 72.0619 273.612 73.8175 274.359 75.5618C275.24 77.6209 276.175 79.7565 277.875 81.2115C280.194 83.1968 280.707 86.0075 282.86 88.1857C285.409 90.7723 285.327 95.0408 284.012 98.43C283.84 98.8753 283.644 99.3404 283.712 99.8141C283.78 100.288 284.131 100.719 284.463 101.096L285.856 102.67C282.559 103.467 278.829 101.743 277.294 98.7165C276.821 97.7805 276.506 96.7028 275.696 96.0363C274.971 95.4407 273.997 95.2989 273.093 95.0322C270.114 94.1474 267.615 91.4218 267.522 88.3133C267.476 86.8527 267.933 85.392 267.726 83.9456C267.611 83.1198 267.284 82.3381 266.777 81.6766C265.998 80.6584 264.822 79.9749 264.188 78.8404C263.114 76.943 263.93 74.4784 263.157 72.442C262.919 71.818 262.443 71.1941 261.778 71.1458C261.112 71.0976 260.543 71.6507 259.905 71.8974C258.58 72.4136 257.146 71.5372 256.039 70.6382C254.931 69.7391 253.682 68.7181 252.272 68.9194C251.34 69.0499 250.606 69.6852 249.748 70.017C249.114 70.261 247.828 70.4793 247.272 69.9433C246.1 68.8627 248.816 66.0634 249.306 65.0537Z" fill="#591D4B"/>
<path opacity="0.1" d="M278.081 97.7805C277.605 96.8446 277.294 95.7668 276.484 95.1031C275.759 94.5075 274.784 94.3629 273.878 94.0963C270.901 93.2142 268.403 90.4887 268.306 87.3802C268.261 85.9195 268.717 84.4561 268.513 83.0096C268.394 82.1892 268.068 81.4129 267.564 80.7548C266.782 79.7367 265.607 79.0531 264.975 77.9187C263.902 76.0241 264.718 73.5594 263.941 71.5202C263.706 70.8991 263.228 70.2751 262.565 70.2241C261.902 70.173 261.327 70.7318 260.693 70.9785C259.367 71.4947 257.931 70.6155 256.826 69.7192C255.722 68.823 254.467 67.7991 253.059 67.9977C252.127 68.131 251.391 68.7663 250.535 69.0953C249.901 69.3392 248.612 69.5604 248.057 69.0244C246.89 67.8899 249.606 65.0962 250.093 64.0922C250.499 63.2641 250.7 62.3423 251.187 61.5595C251.212 61.517 251.241 61.4744 251.269 61.4319C250.905 61.7342 250.59 62.0922 250.337 62.4926C249.853 63.2754 249.652 64.1943 249.247 65.0253C248.757 66.0293 246.04 68.8315 247.21 69.9575C247.777 70.4963 249.051 70.2751 249.686 70.0312C250.535 69.6994 251.277 69.0641 252.209 68.9336C253.626 68.7322 254.872 69.7561 255.977 70.6523C257.081 71.5486 258.526 72.4278 259.846 71.9116C260.48 71.6649 261.035 71.109 261.715 71.16C262.395 71.2111 262.848 71.8322 263.095 72.4562C263.868 74.4925 263.052 76.9572 264.126 78.8546C264.76 79.9692 265.936 80.6669 266.714 81.6908C267.221 82.3522 267.548 83.134 267.663 83.9597C267.87 85.4062 267.414 86.8668 267.459 88.3275C267.553 91.4473 270.051 94.1615 273.031 95.0464C273.929 95.313 274.909 95.4548 275.634 96.0504C276.447 96.7169 276.767 97.7947 277.231 98.7306C278.767 101.757 282.497 103.481 285.794 102.684L285.137 101.941C282.279 101.984 279.387 100.356 278.081 97.7805Z" fill="black"/>
<path opacity="0.1" d="M258.554 84.8361C258.183 85.4034 257.121 88.3076 256.234 90.8432C255.404 90.5199 254.651 88.458 254.651 88.458L259.075 82.1559C259.528 82.7799 259.231 83.8151 258.554 84.8361Z" fill="black"/>
<path d="M258.724 84.6659C258.353 85.2332 257.291 88.1374 256.404 90.673C255.574 90.3525 254.821 88.2878 254.821 88.2878L259.245 81.9886C259.698 82.6097 259.401 83.6478 258.724 84.6659Z" fill="#DCE7FF"/>
<path d="M233 113.64L230.547 105.895C230.518 105.804 230.507 105.709 230.515 105.614C230.523 105.519 230.549 105.426 230.593 105.342C230.636 105.257 230.696 105.182 230.769 105.121C230.842 105.059 230.926 105.013 231.017 104.984C231.199 104.927 231.397 104.945 231.567 105.033C231.737 105.121 231.865 105.273 231.923 105.455L234.376 113.192L234.132 114.812L233 113.64Z" fill="#BE8B87"/>
<path opacity="0.1" d="M230.779 105.214C230.962 105.156 231.16 105.173 231.331 105.261C231.501 105.35 231.63 105.502 231.688 105.685L234.141 113.422L233.957 114.636L234.135 114.823L234.379 113.204L231.912 105.467C231.853 105.284 231.725 105.133 231.555 105.044C231.386 104.956 231.188 104.939 231.006 104.996C230.852 105.046 230.719 105.145 230.629 105.279C230.677 105.254 230.727 105.232 230.779 105.214Z" fill="white"/>
<path d="M233 113.641L234.376 113.204L234.175 114.531L234.132 114.823L233.73 114.403L233 113.641Z" fill="#EFC8C4"/>
<path d="M233.73 114.403C233.754 114.373 233.784 114.348 233.818 114.33C233.838 114.317 233.861 114.31 233.885 114.31C233.908 114.31 233.931 114.317 233.951 114.33C233.971 114.353 233.987 114.379 233.999 114.406C234.018 114.438 234.044 114.464 234.074 114.484C234.104 114.505 234.139 114.518 234.175 114.523L234.133 114.806L233.73 114.403Z" fill="#727A9C"/>
<path d="M230.532 108.646C230.532 108.646 235.452 108.618 234.294 110.714C233.135 112.809 231.326 113.062 231.326 113.062L230.532 108.646Z" fill="#FFB0B1"/>
<path d="M199.933 14.5837H199.721C191.269 14.5837 183.794 19.062 179.494 25.6703C175.194 19.062 167.719 14.5837 159.267 14.5837H159.055C152.712 14.6442 146.649 17.2089 142.184 21.7203C137.718 26.2318 135.212 32.3254 135.208 38.6771C135.208 46.5646 138.658 57.7562 145.385 66.9653C158.202 84.5128 179.494 99.8651 179.494 99.8651C179.494 99.8651 200.786 84.5156 213.6 66.9653C220.33 57.7562 223.777 46.5646 223.777 38.6771C223.774 32.3259 221.267 26.2327 216.803 21.7213C212.338 17.2099 206.276 14.6449 199.933 14.5837ZM196.894 68.3153C195.931 68.3116 194.992 68.0166 194.2 67.4689C193.408 66.9213 192.8 66.1466 192.455 65.2465H187.402C187.07 65.2445 186.746 65.1384 186.476 64.9432C186.206 64.7479 186.004 64.4732 185.898 64.1575L184.346 59.4749L179.435 76.6594C179.339 76.9902 179.139 77.281 178.864 77.4881C178.589 77.6952 178.255 77.8075 177.911 77.808H177.812C177.453 77.7907 177.111 77.6505 176.843 77.411C176.574 77.1715 176.397 76.8471 176.339 76.492L171.277 46.0087L167.578 64.0468C167.493 64.3895 167.296 64.6938 167.018 64.9113C166.74 65.1287 166.398 65.2468 166.045 65.2465H158.927C158.714 65.2556 158.501 65.2213 158.301 65.1458C158.101 65.0703 157.919 64.955 157.765 64.8071C157.611 64.6591 157.488 64.4814 157.404 64.2847C157.32 64.088 157.277 63.8764 157.277 63.6625C157.277 63.4487 157.32 63.2371 157.404 63.0404C157.488 62.8437 157.611 62.666 157.765 62.518C157.919 62.37 158.101 62.2548 158.301 62.1793C158.501 62.1038 158.714 62.0695 158.927 62.0785H164.799L170.039 37.8263C170.125 37.4677 170.333 37.1502 170.627 36.928C170.921 36.7058 171.283 36.5928 171.651 36.6082C172.019 36.6236 172.37 36.7665 172.644 37.0125C172.919 37.2585 173.099 37.5922 173.155 37.9567L178.324 69.0527L182.726 53.6777C182.818 53.3539 183.011 53.0685 183.278 52.864C183.545 52.6595 183.871 52.547 184.207 52.5433H184.238C184.571 52.5434 184.896 52.6487 185.165 52.8443C185.435 53.0398 185.636 53.3156 185.74 53.6323L188.547 62.087H192.393C192.667 61.2551 193.164 60.5149 193.831 59.9483C194.498 59.3817 195.309 59.0107 196.173 58.8762C197.038 58.7416 197.922 58.8488 198.729 59.1859C199.537 59.523 200.235 60.0769 200.748 60.7865C201.261 61.4961 201.568 62.3337 201.635 63.207C201.703 64.0803 201.528 64.9552 201.13 65.7352C200.732 66.5153 200.127 67.1701 199.381 67.6273C198.635 68.0846 197.777 68.3266 196.902 68.3267L196.894 68.3153Z" fill="#2A9988"/>
</g>
<defs>
<linearGradient id="paint0_linear_28_350" x1="100.93" y1="219.768" x2="100.93" y2="45.2457" gradientUnits="userSpaceOnUse">
<stop stop-color="#808080" stop-opacity="0.25"/>
<stop offset="0.54" stop-color="#808080" stop-opacity="0.12"/>
<stop offset="1" stop-color="#808080" stop-opacity="0.1"/>
</linearGradient>
<linearGradient id="paint1_linear_28_350" x1="253.062" y1="217.561" x2="253.062" y2="58.1674" gradientUnits="userSpaceOnUse">
<stop stop-color="#808080" stop-opacity="0.25"/>
<stop offset="0.54" stop-color="#808080" stop-opacity="0.12"/>
<stop offset="1" stop-color="#808080" stop-opacity="0.1"/>
</linearGradient>
<clipPath id="clip0_28_350">
<rect width="313" height="222" fill="white"/>
</clipPath>
</defs>
</svg>
