<svg width="14" height="16" viewBox="0 0 14 16" fill="white" xmlns="http://www.w3.org/2000/svg">
<mask id="path-1-inside-1_199_492" fill="white">
<path d="M13.8403 12.5071C13.3872 12.0945 12.9906 11.6214 12.6611 11.1006C12.3013 10.3818 12.0857 9.59682 12.0268 8.7917V6.42037C12.03 5.15579 11.581 3.93357 10.7644 2.98336C9.94773 2.03314 8.8196 1.42033 7.59195 1.26007V0.640837C7.59195 0.470876 7.52587 0.307877 7.40825 0.187697C7.29063 0.0675166 7.1311 0 6.96477 0C6.79843 0 6.6389 0.0675166 6.52128 0.187697C6.40366 0.307877 6.33758 0.470876 6.33758 0.640837V1.26967C5.12093 1.44149 4.00643 2.058 3.20052 3.00502C2.3946 3.95205 1.95189 5.1654 1.95436 6.42037V8.7917C1.89552 9.59682 1.6799 10.3818 1.32013 11.1006C0.996388 11.6202 0.606132 12.0932 0.159732 12.5071C0.109619 12.5521 0.0694557 12.6075 0.0419142 12.6695C0.0143728 12.7316 8.4468e-05 12.799 0 12.8671V13.52C0 13.6473 0.0494965 13.7694 0.137601 13.8594C0.225705 13.9494 0.3452 14 0.469799 14H13.5302C13.6548 14 13.7743 13.9494 13.8624 13.8594C13.9505 13.7694 14 13.6473 14 13.52V12.8671C13.9999 12.799 13.9856 12.7316 13.9581 12.6695C13.9305 12.6075 13.8904 12.5521 13.8403 12.5071ZM0.977181 13.0399C1.41429 12.6085 1.79914 12.125 2.12349 11.5999C2.57666 10.7317 2.84108 9.77385 2.89866 8.7917V6.42037C2.88003 5.85779 2.97238 5.29714 3.17022 4.77179C3.36806 4.24645 3.66735 3.76715 4.05025 3.36245C4.43315 2.95775 4.89185 2.63591 5.39901 2.41611C5.90618 2.19631 6.45145 2.08303 7.00235 2.08303C7.55325 2.08303 8.09852 2.19631 8.60569 2.41611C9.11285 2.63591 9.57155 2.95775 9.95445 3.36245C10.3374 3.76715 10.6366 4.24645 10.8345 4.77179C11.0323 5.29714 11.1247 5.85779 11.106 6.42037V8.7917C11.1636 9.77385 11.428 10.7317 11.8812 11.5999C12.2056 12.125 12.5904 12.6085 13.0275 13.0399H0.977181Z"/>
</mask>
<path d="M13.8403 12.5071C13.3872 12.0945 12.9906 11.6214 12.6611 11.1006C12.3013 10.3818 12.0857 9.59682 12.0268 8.7917V6.42037C12.03 5.15579 11.581 3.93357 10.7644 2.98336C9.94773 2.03314 8.8196 1.42033 7.59195 1.26007V0.640837C7.59195 0.470876 7.52587 0.307877 7.40825 0.187697C7.29063 0.0675166 7.1311 0 6.96477 0C6.79843 0 6.6389 0.0675166 6.52128 0.187697C6.40366 0.307877 6.33758 0.470876 6.33758 0.640837V1.26967C5.12093 1.44149 4.00643 2.058 3.20052 3.00502C2.3946 3.95205 1.95189 5.1654 1.95436 6.42037V8.7917C1.89552 9.59682 1.6799 10.3818 1.32013 11.1006C0.996388 11.6202 0.606132 12.0932 0.159732 12.5071C0.109619 12.5521 0.0694557 12.6075 0.0419142 12.6695C0.0143728 12.7316 8.4468e-05 12.799 0 12.8671V13.52C0 13.6473 0.0494965 13.7694 0.137601 13.8594C0.225705 13.9494 0.3452 14 0.469799 14H13.5302C13.6548 14 13.7743 13.9494 13.8624 13.8594C13.9505 13.7694 14 13.6473 14 13.52V12.8671C13.9999 12.799 13.9856 12.7316 13.9581 12.6695C13.9305 12.6075 13.8904 12.5521 13.8403 12.5071ZM0.977181 13.0399C1.41429 12.6085 1.79914 12.125 2.12349 11.5999C2.57666 10.7317 2.84108 9.77385 2.89866 8.7917V6.42037C2.88003 5.85779 2.97238 5.29714 3.17022 4.77179C3.36806 4.24645 3.66735 3.76715 4.05025 3.36245C4.43315 2.95775 4.89185 2.63591 5.39901 2.41611C5.90618 2.19631 6.45145 2.08303 7.00235 2.08303C7.55325 2.08303 8.09852 2.19631 8.60569 2.41611C9.11285 2.63591 9.57155 2.95775 9.95445 3.36245C10.3374 3.76715 10.6366 4.24645 10.8345 4.77179C11.0323 5.29714 11.1247 5.85779 11.106 6.42037V8.7917C11.1636 9.77385 11.428 10.7317 11.8812 11.5999C12.2056 12.125 12.5904 12.6085 13.0275 13.0399H0.977181Z" fill="black"/>
<path d="M13.8403 12.5071L12.4935 13.9857L12.4989 13.9906L12.5043 13.9954L13.8403 12.5071ZM12.6611 11.1006L10.8726 11.9958L10.9174 12.0854L10.971 12.1701L12.6611 11.1006ZM12.0268 8.7917H10.0268V8.86469L10.0322 8.93748L12.0268 8.7917ZM12.0268 6.42037L10.0268 6.41545V6.42037H12.0268ZM7.59195 1.26007H5.59195V3.01596L7.33306 3.24325L7.59195 1.26007ZM6.33758 1.26967L6.61725 3.25002L8.33758 3.00708V1.26967H6.33758ZM1.95436 6.42037H3.95437L3.95436 6.41642L1.95436 6.42037ZM1.95436 8.7917L3.94904 8.93748L3.95436 8.86469V8.7917H1.95436ZM1.32013 11.1006L3.01756 12.1583L3.06689 12.0792L3.10864 11.9958L1.32013 11.1006ZM0.159732 12.5071L1.49572 13.9954L1.50773 13.9847L1.51956 13.9737L0.159732 12.5071ZM0 12.8671L-2 12.8647V12.8671H0ZM14 12.8671H16L16 12.8647L14 12.8671ZM0.977181 13.0399L-0.427791 11.6165L-3.89608 15.0399H0.977181V13.0399ZM2.12349 11.5999L3.8251 12.6508L3.86305 12.5894L3.89647 12.5254L2.12349 11.5999ZM2.89866 8.7917L4.89523 8.90876L4.89866 8.85028V8.7917H2.89866ZM2.89866 6.42037H4.89866V6.38726L4.89756 6.35417L2.89866 6.42037ZM7.00235 2.08303V4.08303V2.08303ZM11.106 6.42037L9.10714 6.35417L9.10604 6.38726V6.42037H11.106ZM11.106 8.7917H9.10604V8.85028L9.10947 8.90876L11.106 8.7917ZM11.8812 11.5999L10.1082 12.5254L10.1417 12.5894L10.1796 12.6508L11.8812 11.5999ZM13.0275 13.0399V15.0399H17.9008L14.4325 11.6165L13.0275 13.0399ZM15.1871 11.0286C14.867 10.737 14.5856 10.4017 14.3511 10.0312L10.971 12.1701C11.3956 12.8411 11.9075 13.4519 12.4935 13.9857L15.1871 11.0286ZM14.4496 10.2055C14.2074 9.72161 14.0614 9.19133 14.0215 8.64593L10.0322 8.93748C10.11 10.0023 10.3952 11.042 10.8726 11.9958L14.4496 10.2055ZM14.0268 8.7917V6.42037H10.0268V8.7917H14.0268ZM14.0268 6.42528C14.0311 4.6856 13.4139 2.99775 12.2812 1.67978L9.24757 4.28694C9.74816 4.86939 10.0288 5.62597 10.0269 6.41545L14.0268 6.42528ZM12.2812 1.67978C11.1475 0.36073 9.57365 -0.4982 7.85084 -0.723101L7.33306 3.24325C8.06556 3.33887 8.74792 3.70555 9.24757 4.28694L12.2812 1.67978ZM9.59195 1.26007V0.640837H5.59195V1.26007H9.59195ZM9.59195 0.640837C9.59195 -0.0458262 9.32539 -0.712808 8.83761 -1.21121L5.97889 1.5866C5.72635 1.32856 5.59195 0.987578 5.59195 0.640837H9.59195ZM8.83761 -1.21121C8.3484 -1.71107 7.67561 -2 6.96477 -2V2C6.5866 2 6.23286 1.8461 5.97889 1.5866L8.83761 -1.21121ZM6.96477 -2C6.25392 -2 5.58113 -1.71107 5.09192 -1.21121L7.95064 1.5866C7.69667 1.8461 7.34293 2 6.96477 2V-2ZM5.09192 -1.21121C4.60414 -0.712806 4.33758 -0.0458225 4.33758 0.640837H8.33758C8.33758 0.987575 8.20318 1.32856 7.95064 1.5866L5.09192 -1.21121ZM4.33758 0.640837V1.26967H8.33758V0.640837H4.33758ZM6.05792 -0.710678C4.35068 -0.469583 2.796 0.394368 1.67739 1.70885L4.72365 4.3012C5.21686 3.72163 5.89117 3.35256 6.61725 3.25002L6.05792 -0.710678ZM1.67739 1.70885C0.559661 3.02228 -0.0490396 4.69783 -0.0456337 6.42431L3.95436 6.41642C3.95281 5.63298 4.22955 4.88181 4.72365 4.3012L1.67739 1.70885ZM-0.0456375 6.42037V8.7917H3.95436V6.42037H-0.0456375ZM-0.0403178 8.64593C-0.0801771 9.19133 -0.226187 9.72161 -0.468369 10.2055L3.10864 11.9958C3.58598 11.042 3.87122 10.0023 3.94904 8.93748L-0.0403178 8.64593ZM-0.377295 10.0429C-0.607687 10.4127 -0.884616 10.748 -1.2001 11.0405L1.51956 13.9737C2.09688 13.4384 2.60046 12.8277 3.01756 12.1583L-0.377295 10.0429ZM-1.17626 11.0188C-1.43819 11.2539 -1.64525 11.5407 -1.78623 11.8584L1.87006 13.4806C1.78416 13.6742 1.65743 13.8503 1.49572 13.9954L-1.17626 11.0188ZM-1.78623 11.8584C-1.92717 12.1761 -1.99957 12.519 -2 12.8647L2 12.8696C1.99974 13.079 1.95591 13.2871 1.87006 13.4806L-1.78623 11.8584ZM-2 12.8671V13.52H2V12.8671H-2ZM-2 13.52C-2 14.164 -1.75002 14.7901 -1.29176 15.2583L1.56696 12.4605C1.84902 12.7487 2 13.1306 2 13.52H-2ZM-1.29176 15.2583C-0.832068 15.728 -0.199308 16 0.469799 16V12C0.889709 12 1.28348 12.1708 1.56696 12.4605L-1.29176 15.2583ZM0.469799 16H13.5302V12H0.469799V16ZM13.5302 16C14.1993 16 14.8321 15.728 15.2918 15.2583L12.433 12.4605C12.7165 12.1708 13.1103 12 13.5302 12V16ZM15.2918 15.2583C15.75 14.7901 16 14.164 16 13.52H12C12 13.1306 12.151 12.7487 12.433 12.4605L15.2918 15.2583ZM16 13.52V12.8671H12V13.52H16ZM16 12.8647C15.9996 12.519 15.9272 12.1761 15.7862 11.8584L12.1299 13.4806C12.0441 13.2871 12.0003 13.079 12 12.8696L16 12.8647ZM15.7862 11.8584C15.6452 11.5407 15.4382 11.2539 15.1763 11.0188L12.5043 13.9954C12.3426 13.8503 12.2158 13.6743 12.1299 13.4806L15.7862 11.8584ZM2.38215 14.4633C2.93318 13.9194 3.41747 13.3108 3.8251 12.6508L0.421882 10.5489C0.180807 10.9392 -0.104612 11.2976 -0.427791 11.6165L2.38215 14.4633ZM3.89647 12.5254C4.4811 11.4054 4.82118 10.1718 4.89523 8.90876L0.902086 8.67464C0.860973 9.37589 0.672224 10.0581 0.350513 10.6744L3.89647 12.5254ZM4.89866 8.7917V6.42037H0.898658V8.7917H4.89866ZM4.89756 6.35417C4.88761 6.05374 4.93701 5.75516 5.0419 5.47665L1.29855 4.06693C1.00775 4.83912 0.87244 5.66184 0.899754 6.48657L4.89756 6.35417ZM5.0419 5.47665C5.14676 5.19822 5.30433 4.94703 5.50305 4.73699L2.59745 1.98791C2.03037 2.58727 1.58937 3.29467 1.29855 4.06693L5.0419 5.47665ZM5.50305 4.73699C5.70168 4.52705 5.9372 4.36261 6.19432 4.25118L4.60371 0.581037C3.84649 0.90921 3.16462 1.38844 2.59745 1.98791L5.50305 4.73699ZM6.19432 4.25118C6.45132 4.1398 6.72598 4.08303 7.00235 4.08303V0.0830345C6.17691 0.0830345 5.36104 0.252817 4.60371 0.581037L6.19432 4.25118ZM7.00235 4.08303C7.27872 4.08303 7.55338 4.1398 7.81038 4.25118L9.40099 0.581037C8.64366 0.252817 7.82779 0.0830345 7.00235 0.0830345V4.08303ZM7.81038 4.25118C8.06749 4.36261 8.30302 4.52705 8.50165 4.73699L11.4072 1.98791C10.8401 1.38844 10.1582 0.90921 9.40099 0.581037L7.81038 4.25118ZM8.50165 4.73699C8.70037 4.94703 8.85794 5.19822 8.9628 5.47665L12.7062 4.06693C12.4153 3.29468 11.9743 2.58727 11.4072 1.98791L8.50165 4.73699ZM8.9628 5.47665C9.06769 5.75516 9.11709 6.05375 9.10714 6.35417L13.1049 6.48657C13.1323 5.66184 12.997 4.83911 12.7062 4.06693L8.9628 5.47665ZM9.10604 6.42037V8.7917H13.106V6.42037H9.10604ZM9.10947 8.90876C9.18352 10.1718 9.5236 11.4054 10.1082 12.5254L13.6542 10.6744C13.3325 10.0581 13.1437 9.37589 13.1026 8.67464L9.10947 8.90876ZM10.1796 12.6508C10.5872 13.3108 11.0715 13.9194 11.6225 14.4633L14.4325 11.6165C14.1093 11.2976 13.8239 10.9392 13.5828 10.5489L10.1796 12.6508ZM13.0275 11.0399H0.977181V15.0399H13.0275V11.0399Z" fill="#1C665B" mask="url(#path-1-inside-1_199_492)"/>
<mask id="path-3-inside-2_199_492" fill="white">
<path d="M7.01907 15.9998C7.25859 15.987 7.48844 15.7793 7.66797 15.4134C7.8475 15.0474 7.96513 14.5467 8.00006 14H6.00006C6.03598 14.5616 6.15912 15.074 6.34656 15.4419C6.53401 15.8097 6.773 16.008 7.01907 15.9998Z"/>
</mask>
<path d="M7.01907 15.9998C7.25859 15.987 7.48844 15.7793 7.66797 15.4134C7.8475 15.0474 7.96513 14.5467 8.00006 14H6.00006C6.03598 14.5616 6.15912 15.074 6.34656 15.4419C6.53401 15.8097 6.773 16.008 7.01907 15.9998Z" fill="black"/>
<path d="M8.00006 14L9.99599 14.1275L10.1319 12H8.00006V14ZM6.00006 14V12H3.86805L4.00414 14.1277L6.00006 14ZM7.12516 17.9969C8.49307 17.9243 9.19596 16.8397 9.46356 16.2942L5.87238 14.5325C5.85814 14.5615 5.89361 14.474 6.02506 14.3552C6.16424 14.2294 6.46477 14.0264 6.91298 14.0026L7.12516 17.9969ZM9.46356 16.2942C9.79097 15.6268 9.94976 14.8512 9.99599 14.1275L6.00413 13.8725C5.9805 14.2423 5.90403 14.468 5.87238 14.5325L9.46356 16.2942ZM8.00006 12H6.00006V16H8.00006V12ZM4.00414 14.1277C4.05152 14.8684 4.21719 15.6682 4.56458 16.3499L8.12855 14.5338C8.10105 14.4798 8.02044 14.2548 7.99598 13.8723L4.00414 14.1277ZM4.56458 16.3499C4.848 16.9061 5.62555 18.0473 7.08573 17.9986L6.95241 14.0009C7.42494 13.9851 7.76619 14.1802 7.93779 14.3225C8.09447 14.4525 8.14064 14.5575 8.12855 14.5338L4.56458 16.3499Z" fill="#1C665B" mask="url(#path-3-inside-2_199_492)"/>
</svg>
