<svg width="29" height="34" viewBox="0 0 29 34" fill="none" xmlns="http://www.w3.org/2000/svg">
<path d="M22.7857 8.5C22.7857 13.1949 19.0766 17 14.4417 17C9.92344 17 6.15603 13.1949 6.15603 8.5C6.15603 3.80574 9.92344 0 14.4417 0C19.0766 0 22.7857 3.80574 22.7857 8.5ZM18.5846 24.0391C16.8563 24.5105 15.4775 26.1773 15.4775 28.1562V29.75C15.4775 30.0289 15.6458 30.3012 15.84 30.5004L16.8757 31.5629C17.277 31.9812 17.9373 31.9812 18.3386 31.5629C18.7464 31.1512 18.7464 30.4738 18.3386 30.0621L17.5489 29.3117V28.1562C17.5489 26.9809 18.5328 26.0312 19.6203 26.0312C20.8243 26.0312 21.75 26.9809 21.75 28.1562V29.3117L21.0185 30.0621C20.6107 30.4738 20.6107 31.1512 21.0185 31.5629C21.4199 31.9812 22.0801 31.9812 22.4815 31.5629L23.5172 30.5004C23.7114 30.3012 23.8214 30.0289 23.8214 29.75V28.1562C23.8214 26.1773 22.5009 24.5105 20.7143 24.0391V20.5062C25.4721 21.6949 29 26.0379 29 31.3438V31.875C29 33.0504 28.0743 34 26.9286 34H2.07143C0.927612 34 0 33.0504 0 31.875V31.3438C0 26.0977 3.52984 21.6949 8.28571 20.5062V24.5902C6.7904 25.0484 5.69643 26.4695 5.69643 28.1562C5.69643 30.2082 7.32121 31.875 9.32143 31.875C11.3217 31.875 12.9464 30.2082 12.9464 28.1562C12.9464 26.4695 11.8525 25.0484 10.3571 24.5902V20.2008C10.5319 20.1941 10.7002 20.1875 10.875 20.1875H18.125C18.2998 20.1875 18.4681 20.1941 18.6429 20.2008L18.5846 24.0391ZM10.8167 28.1562C10.8167 29.0395 10.1824 29.75 9.26317 29.75C8.46049 29.75 7.7096 29.0395 7.7096 28.1562C7.7096 27.273 8.46049 26.5625 9.26317 26.5625C10.1824 26.5625 10.8167 27.273 10.8167 28.1562Z" fill="#FCFCFC"/>
</svg>
