<svg width="31" height="26" viewBox="0 0 31 26" fill="none" xmlns="http://www.w3.org/2000/svg">
<path d="M29.613 0.579687C29.2635 0.338047 28.8692 0.166812 28.4526 0.0757625C28.0361 -0.015287 27.6055 -0.0243667 27.1854 0.0490425C26.7653 0.122452 26.3639 0.276911 26.0043 0.503598C25.6446 0.730285 25.3337 1.02476 25.0892 1.37019L12.7394 18.7955L4.64187 13.3307C3.99242 12.8918 3.1931 12.7258 2.41974 12.8691C1.64638 13.0125 0.962341 13.4535 0.518096 14.0951C0.0738508 14.7368 -0.0942071 15.5265 0.0508928 16.2905C0.195993 17.0546 0.642365 17.7304 1.29181 18.1693L12.1461 25.4941C12.4804 25.7195 12.8581 25.8744 13.2558 25.949C13.6535 26.0236 14.0624 26.0163 14.4571 25.9276C14.878 25.8549 15.2804 25.7008 15.6409 25.4742C16.0015 25.2476 16.3133 24.9529 16.5583 24.607L30.4137 5.05159C30.9075 4.3533 31.1005 3.48989 30.9502 2.65109C30.8 1.81229 30.3189 1.06672 29.6125 0.578224" fill="#FCFCFC"/>
</svg>
