<svg width="17" height="14" viewBox="0 0 17 14" fill="none" xmlns="http://www.w3.org/2000/svg">
<path d="M1 4H16M1 2.5C1 2.10218 1.15804 1.72064 1.43934 1.43934C1.72064 1.15804 2.10218 1 2.5 1H14.5C14.8978 1 15.2794 1.15804 15.5607 1.43934C15.842 1.72064 16 2.10218 16 2.5V11.5C16 11.8978 15.842 12.2794 15.5607 12.5607C15.2794 12.842 14.8978 13 14.5 13H2.5C2.10218 13 1.72064 12.842 1.43934 12.5607C1.15804 12.2794 1 11.8978 1 11.5V2.5Z" stroke="#1C665B" stroke-linecap="round" stroke-linejoin="round"/>
<path d="M1 7H6.25C6.25 7.75 6.7 9.25 8.5 9.25C10.3 9.25 10.75 7.75 10.75 7H16" stroke="#1C665B" stroke-linecap="round" stroke-linejoin="round"/>
</svg>
